<svg width="26" height="26" viewBox="0 0 26 26" fill="none" xmlns="http://www.w3.org/2000/svg">
<path d="M24.3753 13.2523C24.3753 12.317 24.2978 11.6345 24.1302 10.9268H13.2324V15.1481H19.6292C19.5003 16.1972 18.8038 17.777 17.2562 18.8386L17.2345 18.98L20.6802 21.5959L20.9189 21.6193C23.1113 19.6349 24.3753 16.7153 24.3753 13.2523Z" fill="#4285F4"/>
<path d="M13.2323 24.3754C16.3662 24.3754 18.9971 23.3642 20.9188 21.6201L17.2561 18.8394C16.2759 19.5093 14.9604 19.9769 13.2323 19.9769C10.1629 19.9769 7.55778 17.9927 6.62912 15.25L6.493 15.2613L2.91014 17.9787L2.86328 18.1064C4.77198 21.8222 8.69261 24.3754 13.2323 24.3754Z" fill="#34A853"/>
<path d="M6.63087 15.2501C6.38583 14.5423 6.24402 13.7839 6.24402 13.0004C6.24402 12.2167 6.38583 11.4584 6.61797 10.7506L6.61148 10.5999L2.98371 7.83887L2.86502 7.8942C2.07835 9.43616 1.62695 11.1677 1.62695 13.0004C1.62695 14.833 2.07835 16.5645 2.86502 18.1064L6.63087 15.2501Z" fill="#FBBC05"/>
<path d="M13.2324 6.0233C15.4119 6.0233 16.8821 6.94594 17.7204 7.71696L20.9962 4.5825C18.9844 2.74987 16.3663 1.625 13.2324 1.625C8.69265 1.625 4.77199 4.17804 2.86328 7.89384L6.61625 10.7503C7.5578 8.00763 10.1629 6.0233 13.2324 6.0233Z" fill="#EB4335"/>
</svg>
