<svg width="14" height="16" viewBox="0 0 14 16" fill="none" xmlns="http://www.w3.org/2000/svg">
<path d="M9 0.500122H1C0.4485 0.500122 0 0.948622 0 1.50012V14.5001C0 15.0516 0.4485 15.5001 1 15.5001H9C9.5515 15.5001 10 15.0516 10 14.5001V1.50012C10 0.948622 9.5515 0.500122 9 0.500122ZM8 5.50012C8 6.05162 7.5515 6.50012 7 6.50012H3C2.4485 6.50012 2 6.05162 2 5.50012V3.50012C2 2.94862 2.4485 2.50012 3 2.50012H7C7.5515 2.50012 8 2.94862 8 3.50012V5.50012Z" fill="#101010"/>
<path d="M11.5 6.5H9.5C9.224 6.5 9 6.276 9 6C9 5.724 9.224 5.5 9.5 5.5H11.5C11.776 5.5 12 5.724 12 6C12 6.276 11.776 6.5 11.5 6.5Z" fill="#101010"/>
<path d="M11.5 14.5C11.224 14.5 11 14.276 11 14V6C11 5.724 11.224 5.5 11.5 5.5C11.776 5.5 12 5.724 12 6V14C12 14.276 11.776 14.5 11.5 14.5Z" fill="#101010"/>
<path d="M13.5 14.5H11.5C11.224 14.5 11 14.276 11 14C11 13.724 11.224 13.5 11.5 13.5H13.5C13.776 13.5 14 13.724 14 14C14 14.276 13.776 14.5 13.5 14.5Z" fill="#101010"/>
<path d="M13.9614 2.809C13.9359 2.748 13.8994 2.6925 13.8534 2.6465L11.8534 0.646503C11.6579 0.451003 11.3419 0.451003 11.1464 0.646503C10.9509 0.842003 10.9509 1.158 11.1464 1.3535L11.4934 1.7005C11.1829 2.0615 10.9999 2.5185 10.9999 3C10.9999 4.103 11.8969 5 12.9999 5V14C12.9999 14.276 13.2239 14.5 13.4999 14.5C13.7759 14.5 13.9999 14.276 13.9999 14V3C13.9999 2.935 13.9864 2.87 13.9614 2.809Z" fill="#101010"/>
</svg>
