<svg width="22" height="22" viewBox="0 0 22 22" fill="none" xmlns="http://www.w3.org/2000/svg">
<path d="M14.3333 10.5001L13.0999 10.0667C12.9999 9.73341 12.8666 9.40007 12.6666 9.06674L13.2333 7.90007C13.2999 7.76674 13.2666 7.60007 13.1666 7.53341L11.7333 6.10007C11.6333 6.00007 11.4666 5.96674 11.3666 6.03341L10.1999 6.60007C9.86659 6.43341 9.53325 6.30007 9.19992 6.16674L8.76659 4.93341C8.73325 4.80007 8.59992 4.70007 8.46659 4.70007H6.43325C6.29992 4.70007 6.16658 4.80007 6.09992 4.93341L5.66659 6.16674C5.33325 6.26674 4.99992 6.40007 4.66659 6.60007L3.53325 6.00007C3.39992 5.93341 3.26659 5.96674 3.13325 6.06674L1.69992 7.50007C1.59992 7.60007 1.56659 7.76674 1.63325 7.86674L2.19992 9.03341C2.03325 9.36674 1.89992 9.70007 1.79992 10.0334L0.566585 10.4667C0.433252 10.5334 0.333252 10.6667 0.333252 10.8001V12.8334C0.333252 12.9667 0.433252 13.1001 0.566585 13.1667L1.79992 13.6001C1.89992 13.9334 2.03325 14.2667 2.23325 14.6001L1.66659 15.7667C1.59992 15.9001 1.63325 16.0667 1.73325 16.1667L3.16659 17.6001C3.26659 17.7001 3.43325 17.7334 3.56659 17.6667L4.73325 17.1001C5.06659 17.2667 5.39992 17.4001 5.73325 17.5334L6.16659 18.7667C6.19992 18.9001 6.33325 19.0001 6.46659 19.0001H8.49992C8.63325 19.0001 8.76659 18.9001 8.79992 18.7667L9.23325 17.5334C9.56659 17.4334 9.89992 17.3001 10.2333 17.1001L11.3999 17.6667C11.5333 17.7334 11.6666 17.7001 11.7666 17.6001L13.1999 16.1667C13.2999 16.0667 13.3333 15.9001 13.2666 15.7667L12.6666 14.5667C12.8333 14.2334 12.9666 13.9001 13.0999 13.5667L14.3333 13.1334C14.4666 13.1001 14.5666 12.9667 14.5666 12.8001V10.7667C14.5666 10.6667 14.4666 10.5334 14.3333 10.5001ZM7.43325 14.6667C5.86659 14.6667 4.59992 13.4001 4.59992 11.8334C4.59992 10.2667 5.86659 9.00007 7.43325 9.00007C8.99992 9.00007 10.2666 10.2667 10.2666 11.8334C10.2666 13.3667 8.99992 14.6667 7.43325 14.6667Z" fill="#101010"/>
<path d="M21.4332 3.86668L20.7665 3.63335C20.6999 3.46668 20.6332 3.30002 20.5665 3.16668L20.8665 2.53335C20.9332 2.40002 20.8999 2.26668 20.7999 2.13335L19.9999 1.30002C19.8999 1.20002 19.7332 1.16668 19.6332 1.23335L18.9999 1.53335C18.8332 1.46668 18.6999 1.40002 18.5332 1.33335L18.2999 0.666683C18.2665 0.53335 18.1332 0.43335 17.9999 0.43335H16.7999C16.6665 0.43335 16.5332 0.53335 16.4665 0.666683L16.2332 1.33335C16.0665 1.40002 15.8999 1.46668 15.7665 1.53335L15.1332 1.23335C14.9999 1.16668 14.8332 1.20002 14.7332 1.30002L13.8999 2.13335C13.7999 2.23335 13.7665 2.40002 13.8332 2.53335L14.1332 3.16668C14.0665 3.33335 13.9999 3.46668 13.9332 3.63335L13.2665 3.86668C13.1332 3.90002 13.0332 4.03335 13.0332 4.16668V5.36668C13.0332 5.50002 13.1332 5.63335 13.2665 5.66668L13.9332 5.90002C13.9999 6.06668 14.0665 6.23335 14.1332 6.40002L13.8332 7.00002C13.7665 7.13335 13.7999 7.30002 13.8999 7.40002L14.7332 8.23335C14.8332 8.33335 14.9999 8.36668 15.1332 8.30002L15.7665 8.00002C15.9332 8.06668 16.0999 8.13335 16.2332 8.20002L16.4665 8.86668C16.4999 9.00002 16.6332 9.10002 16.7999 9.10002H17.9999C18.1332 9.10002 18.2665 9.00002 18.2999 8.86668L18.5332 8.20002C18.6999 8.13335 18.8665 8.06668 18.9999 8.00002L19.6332 8.30002C19.7665 8.36668 19.8999 8.33335 20.0332 8.23335L20.8665 7.40002C20.9665 7.30002 20.9999 7.13335 20.9332 7.00002L20.6332 6.36668C20.6999 6.20002 20.7665 6.03335 20.8332 5.86668L21.4999 5.63335C21.6332 5.60002 21.7332 5.46668 21.7332 5.33335V4.13335C21.6665 4.03335 21.5665 3.90002 21.4332 3.86668ZM17.3665 6.43335C16.4332 6.43335 15.6999 5.70002 15.6999 4.76668C15.6999 3.86668 16.4332 3.10002 17.3665 3.10002C18.2665 3.10002 19.0332 3.83335 19.0332 4.76668C19.0332 5.70002 18.2665 6.43335 17.3665 6.43335Z" fill="#101010"/>
<path d="M21.4333 14.7334L20.4999 14.4001C20.4333 14.1334 20.3333 13.9001 20.1999 13.6667L20.6333 12.7667C20.6999 12.6334 20.6666 12.5001 20.5666 12.4001L19.4333 11.2667C19.3333 11.1667 19.1666 11.1334 19.0333 11.2001L18.1666 11.6667C17.9333 11.5334 17.6666 11.4334 17.4333 11.3667L17.1333 10.4334C17.0999 10.3001 16.9666 10.2001 16.7999 10.2001H15.1999C15.1333 10.2001 15.0999 10.2001 15.0333 10.2334C15.1333 10.4001 15.1999 10.6001 15.1999 10.8001V12.8334C15.1999 13.2667 14.9333 13.6334 14.5333 13.7667L13.5999 14.1001C13.5333 14.2667 13.4666 14.4334 13.3999 14.5667L13.8333 15.4334C14.0333 15.8334 13.9666 16.2667 13.6333 16.6001L12.1999 18.0334C12.0333 18.2001 11.8333 18.3001 11.6333 18.3334L11.3333 18.9334C11.2666 19.0667 11.2999 19.2001 11.3999 19.3001L12.5333 20.4334C12.6333 20.5334 12.7999 20.5667 12.9333 20.5001L13.8333 20.0667C14.0666 20.2001 14.3333 20.3001 14.5666 20.3667L14.8999 21.3001C14.9333 21.4334 15.0666 21.5334 15.2333 21.5334H16.8333C16.9666 21.5334 17.0999 21.4334 17.1666 21.3001L17.4666 20.3667C17.7333 20.2667 17.9666 20.1667 18.1999 20.0667L19.0999 20.5001C19.2333 20.5667 19.3666 20.5334 19.4999 20.4334L20.6333 19.3001C20.7333 19.2001 20.7666 19.0334 20.6999 18.9334L20.2666 18.0334C20.3999 17.8001 20.4999 17.5334 20.5666 17.3001L21.4999 16.9667C21.6333 16.9334 21.7333 16.8001 21.7333 16.6334V15.0334C21.6666 14.9001 21.5666 14.8001 21.4333 14.7334ZM16.3333 18.1001C15.0999 18.1001 14.0999 17.1001 14.0999 15.8667C14.0999 14.6334 15.0999 13.6334 16.3333 13.6334C17.5666 13.6334 18.5666 14.6334 18.5666 15.8667C18.5666 17.1001 17.5666 18.1001 16.3333 18.1001Z" fill="#101010"/>
</svg>
