<svg width="20" height="12" viewBox="0 0 20 12" fill="none" xmlns="http://www.w3.org/2000/svg">
<path d="M19.944 8.19999C19.548 6.17599 18.536 4.28399 17.0401 2.87599L16.864 3.05199L14.3561 5.55999C15.1481 6.35199 15.6761 7.36399 15.9401 8.46399C15.984 8.72799 16.2481 8.94799 16.5561 8.94799H19.3281C19.504 8.94799 19.724 8.85999 19.812 8.72799C19.944 8.59599 19.988 8.41999 19.944 8.19999ZM10.4401 0.0599914V3.79999C11.628 3.88799 12.7721 4.32799 13.6961 5.03199L16.3801 2.34799C14.708 0.939992 12.5961 0.147991 10.4401 0.0599914ZM3.13605 3.09599L2.96005 2.87599C1.46405 4.32799 0.452051 6.21999 0.0560508 8.19999C0.0120508 8.37599 0.0560508 8.59599 0.188051 8.72799C0.320051 8.85999 0.496051 8.94799 0.672051 8.94799H3.44405C3.75205 8.94799 4.01605 8.72799 4.06005 8.46399C4.32405 7.36399 4.85205 6.35199 5.64405 5.55999L3.13605 3.09599ZM3.62005 2.30399L6.30405 4.98799C6.30405 4.98799 6.34805 4.94399 6.39205 4.94399C6.39205 4.67999 6.43605 4.45999 6.61205 4.28399C6.83205 4.01999 7.14005 3.84399 7.49205 3.84399C7.71205 3.84399 7.93205 3.93199 8.15205 4.06399C8.63605 3.88799 9.12005 3.79999 9.60405 3.75599V0.0159912C7.40405 0.147991 5.29205 0.939992 3.62005 2.30399Z" fill="#101010"/>
<path d="M9.99998 6.92405C9.86798 6.92405 9.69198 6.92405 9.55998 6.96805C8.94398 6.30805 7.97598 5.20805 7.62398 4.81205C7.49198 4.68005 7.22798 4.81205 7.27198 4.98805C7.35998 5.29605 7.22798 4.81205 8.10798 7.80405C7.71198 8.24405 7.49198 8.81605 7.49198 9.43205C7.49198 10.796 8.63598 11.94 9.99998 11.94C11.408 11.94 12.508 10.796 12.508 9.43205C12.508 8.02405 11.364 6.92405 9.99998 6.92405ZM9.99998 10.532C9.42798 10.532 8.98798 10.092 8.98798 9.52005C8.98798 8.94805 9.47198 8.50805 9.99998 8.50805C10.572 8.50805 11.012 8.94805 11.012 9.52005C11.012 10.048 10.572 10.532 9.99998 10.532Z" fill="#101010"/>
</svg>
