<svg width="166" height="44" viewBox="0 0 166 44" fill="none" xmlns="http://www.w3.org/2000/svg">
<path d="M26.4437 20.0113C26.3998 15.2574 30.436 12.9446 30.6206 12.8369C28.3347 9.5875 24.7917 9.14352 23.5466 9.10812C20.5709 8.8028 17.6845 10.8442 16.1686 10.8442C14.6225 10.8442 12.2882 9.13762 9.7724 9.18777C6.53497 9.23645 3.5063 11.064 1.84522 13.9019C-1.58283 19.6883 0.97384 28.1917 4.25817 32.8689C5.9011 35.1596 7.82087 37.7172 10.3337 37.6272C12.792 37.5284 13.7103 36.0991 16.6769 36.0991C19.6163 36.0991 20.4786 37.6272 23.0414 37.5697C25.6797 37.5284 27.3408 35.2687 28.9262 32.9574C30.8248 30.3319 31.5873 27.7462 31.6175 27.6135C31.5555 27.5928 26.4936 25.7092 26.4437 20.0113Z" fill="white"/>
<path d="M21.6027 6.03127C22.9249 4.4191 23.8295 2.22577 23.5784 0C21.6647 0.0826 19.2714 1.29063 17.8932 2.8674C16.6739 4.25685 15.5847 6.53425 15.866 8.67595C18.0158 8.8323 20.223 7.61837 21.6027 6.03127Z" fill="white"/>
<path d="M62.0205 37.2982H58.5848L56.7029 31.5325H50.1615L48.3688 37.2982H45.0239L51.5048 17.6689H55.5078L62.0205 37.2982ZM56.1356 29.1135L54.4337 23.9878C54.2536 23.4642 53.9163 22.2311 53.4186 20.29H53.358C53.1599 21.1249 52.8407 22.358 52.4019 23.9878L50.7303 29.1135H56.1356Z" fill="white"/>
<path d="M78.6873 30.0471C78.6873 32.4543 78.0201 34.357 76.6858 35.7539C75.4907 36.9973 74.0066 37.6183 72.2351 37.6183C70.3229 37.6183 68.9492 36.9486 68.1126 35.6093H68.0521V43.0654H64.8268V27.8036C64.8268 26.2903 64.7859 24.7371 64.7073 23.1441H67.5438L67.7238 25.3876H67.7844C68.86 23.6972 70.4923 22.8535 72.6829 22.8535C74.3954 22.8535 75.825 23.5128 76.9687 24.833C78.1154 26.1546 78.6873 27.8921 78.6873 30.0471ZM75.4014 30.1621C75.4014 28.7845 75.0837 27.6487 74.4453 26.7549C73.7479 25.8227 72.8115 25.3566 71.6375 25.3566C70.8418 25.3566 70.1186 25.6162 69.4727 26.128C68.8252 26.6443 68.4016 27.3183 68.2034 28.1532C68.1036 28.5426 68.0536 28.8612 68.0536 29.1119V31.4719C68.0536 32.5015 68.3774 33.3703 69.0249 34.0797C69.6724 34.7892 70.5135 35.1432 71.5482 35.1432C72.763 35.1432 73.7086 34.686 74.3848 33.7744C75.0625 32.8614 75.4014 31.6578 75.4014 30.1621Z" fill="white"/>
<path d="M95.3842 30.0471C95.3842 32.4543 94.7171 34.357 93.3813 35.7539C92.1876 36.9973 90.7036 37.6183 88.932 37.6183C87.0198 37.6183 85.6462 36.9486 84.8111 35.6093H84.7506V43.0654H81.5253V27.8036C81.5253 26.2903 81.4844 24.7371 81.4058 23.1441H84.2423L84.4223 25.3876H84.4828C85.5569 23.6972 87.1893 22.8535 89.3814 22.8535C91.0924 22.8535 92.522 23.5128 93.6687 24.833C94.8109 26.1546 95.3842 27.8921 95.3842 30.0471ZM92.0984 30.1621C92.0984 28.7845 91.7792 27.6487 91.1408 26.7549C90.4433 25.8227 89.5099 25.3566 88.3345 25.3566C87.5372 25.3566 86.8156 25.6162 86.1681 26.128C85.5206 26.6443 85.0986 27.3183 84.9004 28.1532C84.802 28.5426 84.7506 28.8612 84.7506 29.1119V31.4719C84.7506 32.5015 85.0743 33.3703 85.7188 34.0797C86.3663 34.7877 87.2074 35.1432 88.2452 35.1432C89.46 35.1432 90.4055 34.686 91.0818 33.7744C91.7595 32.8614 92.0984 31.6578 92.0984 30.1621Z" fill="white"/>
<path d="M114.052 31.7931C114.052 33.4628 113.458 34.8213 112.264 35.87C110.953 37.0161 109.127 37.5884 106.78 37.5884C104.614 37.5884 102.877 37.1813 101.562 36.3656L102.31 33.7445C103.726 34.5794 105.28 34.9983 106.972 34.9983C108.187 34.9983 109.133 34.7298 109.812 34.1959C110.488 33.6619 110.826 32.9451 110.826 32.0512C110.826 31.2547 110.547 30.5836 109.989 30.0393C109.434 29.495 108.506 28.9891 107.211 28.5215C103.687 27.2398 101.926 25.3621 101.926 22.8929C101.926 21.2793 102.543 19.9562 103.779 18.9267C105.01 17.8956 106.653 17.3809 108.708 17.3809C110.54 17.3809 112.061 17.6921 113.276 18.3131L112.47 20.8766C111.335 20.2748 110.052 19.9739 108.617 19.9739C107.482 19.9739 106.596 20.2468 105.96 20.7896C105.423 21.2749 105.154 21.8663 105.154 22.567C105.154 23.3428 105.461 23.9844 106.078 24.4889C106.615 24.955 107.591 25.4594 109.007 26.0037C110.739 26.6837 112.012 27.4787 112.83 28.3903C113.645 29.2989 114.052 30.4361 114.052 31.7931Z" fill="white"/>
<path d="M124.716 25.5039H121.161V32.3759C121.161 34.1238 121.788 34.997 123.043 34.997C123.62 34.997 124.098 34.9483 124.476 34.851L124.565 37.239C123.93 37.4706 123.093 37.5871 122.057 37.5871C120.783 37.5871 119.788 37.208 119.069 36.4514C118.353 35.6932 117.993 34.4218 117.993 32.6355V25.501H115.875V23.141H117.993V20.5494L121.161 19.6172V23.141H124.716V25.5039Z" fill="white"/>
<path d="M140.757 30.1041C140.757 32.2797 140.118 34.066 138.844 35.4628C137.509 36.9009 135.736 37.6178 133.525 37.6178C131.395 37.6178 129.699 36.9289 128.435 35.5513C127.17 34.1736 126.538 32.4346 126.538 30.3386C126.538 28.1453 127.188 26.3488 128.494 24.9519C129.796 23.5536 131.554 22.8545 133.764 22.8545C135.894 22.8545 137.608 23.5433 138.902 24.9224C140.139 26.2603 140.757 27.9875 140.757 30.1041ZM137.41 30.2059C137.41 28.9005 137.124 27.781 136.545 26.8473C135.869 25.7175 134.902 25.154 133.649 25.154C132.353 25.154 131.368 25.7189 130.692 26.8473C130.112 27.7825 129.826 28.9197 129.826 30.2649C129.826 31.5703 130.112 32.6898 130.692 33.622C131.389 34.7518 132.363 35.3153 133.621 35.3153C134.852 35.3153 135.819 34.74 136.516 33.5925C137.111 32.6411 137.41 31.5098 137.41 30.2059Z" fill="white"/>
<path d="M151.24 25.9097C150.921 25.8522 150.581 25.8227 150.224 25.8227C149.089 25.8227 148.212 26.2401 147.595 27.0764C147.058 27.8139 146.788 28.7461 146.788 29.8716V37.2982H143.564L143.595 27.6015C143.595 25.9702 143.554 24.4849 143.474 23.1456H146.283L146.401 25.8537H146.49C146.831 24.9229 147.368 24.1736 148.103 23.6117C148.821 23.1057 149.598 22.8535 150.434 22.8535C150.732 22.8535 151.001 22.8742 151.24 22.911V25.9097Z" fill="white"/>
<path d="M165.665 29.5507C165.665 30.1141 165.627 30.5891 165.547 30.977H155.871C155.909 32.3753 156.377 33.4447 157.275 34.1822C158.091 34.8415 159.145 35.1719 160.44 35.1719C161.873 35.1719 163.18 34.9492 164.355 34.5023L164.86 36.6853C163.487 37.2694 161.865 37.5599 159.994 37.5599C157.743 37.5599 155.976 36.9139 154.69 35.6233C153.407 34.3326 152.764 32.5995 152.764 30.4254C152.764 28.291 153.361 26.5137 154.558 25.0962C155.811 23.5828 157.504 22.8262 159.634 22.8262C161.726 22.8262 163.31 23.5828 164.385 25.0962C165.237 26.2983 165.665 27.7851 165.665 29.5507ZM162.59 28.735C162.611 27.8028 162.401 26.9975 161.963 26.3175C161.405 25.4428 160.547 25.0062 159.393 25.0062C158.339 25.0062 157.481 25.4325 156.826 26.288C156.289 26.968 155.97 27.7836 155.871 28.7335H162.59V28.735Z" fill="white"/>
<path d="M55.0694 5.59316C55.0694 7.32924 54.5353 8.63609 53.4688 9.51371C52.4809 10.3235 51.077 10.7291 49.2586 10.7291C48.357 10.7291 47.5854 10.6908 46.9395 10.6141V1.12833C47.7821 0.995584 48.6898 0.927734 49.6701 0.927734C51.4023 0.927734 52.7078 1.29501 53.5883 2.02956C54.5747 2.85998 55.0694 4.04736 55.0694 5.59316ZM53.3977 5.63594C53.3977 4.51051 53.0921 3.64763 52.4809 3.04583C51.8697 2.44551 50.9772 2.14461 49.8017 2.14461C49.3025 2.14461 48.8774 2.17706 48.5249 2.24491V9.45619C48.72 9.48569 49.0771 9.49896 49.596 9.49896C50.8093 9.49896 51.7457 9.17004 52.4053 8.51219C53.0649 7.85434 53.3977 6.89559 53.3977 5.63594Z" fill="white"/>
<path d="M63.9329 7.10948C63.9329 8.17885 63.6198 9.055 62.9935 9.74235C62.3369 10.4489 61.467 10.8014 60.3808 10.8014C59.334 10.8014 58.5004 10.4636 57.8786 9.78513C57.2584 9.1081 56.9482 8.25408 56.9482 7.22453C56.9482 6.14778 57.2674 5.26425 57.9089 4.57838C58.5503 3.8925 59.4126 3.54883 60.4988 3.54883C61.5457 3.54883 62.3868 3.8866 63.0237 4.56363C63.6289 5.22148 63.9329 6.07108 63.9329 7.10948ZM62.2885 7.15963C62.2885 6.518 62.1463 5.96783 61.8634 5.5091C61.5306 4.9545 61.0571 4.6772 60.4414 4.6772C59.8045 4.6772 59.3203 4.9545 58.9875 5.5091C58.7031 5.96783 58.5624 6.52685 58.5624 7.18765C58.5624 7.82928 58.7046 8.37945 58.9875 8.83818C59.3309 9.39278 59.809 9.67008 60.4262 9.67008C61.0313 9.67008 61.5064 9.38835 61.8483 8.82343C62.1418 8.35585 62.2885 7.80125 62.2885 7.15963Z" fill="white"/>
<path d="M75.8177 3.69043L73.5863 10.6436H72.134L71.2096 7.62425C70.9751 6.87053 70.7845 6.12123 70.6363 5.37783H70.6075C70.4698 6.14188 70.2792 6.8897 70.0342 7.62425L69.0523 10.6436H67.5834L65.4851 3.69043H67.1144L67.9207 6.99591C68.1159 7.77766 68.2763 8.52253 68.4048 9.22758H68.4336C68.5516 8.64643 68.7467 7.90598 69.0221 7.01066L70.0342 3.69191H71.3261L72.2958 6.93986C72.5303 7.73193 72.7209 8.49451 72.8677 9.22906H72.9115C73.0189 8.51368 73.1808 7.75111 73.3956 6.93986L74.261 3.69191H75.8177V3.69043Z" fill="white"/>
<path d="M84.0368 10.6431H82.4514V6.66062C82.4514 5.43342 81.9734 4.81982 81.0142 4.81982C80.5437 4.81982 80.164 4.98797 79.869 5.32575C79.5771 5.66352 79.4288 6.06177 79.4288 6.51755V10.6416H77.8434V5.6768C77.8434 5.06615 77.8237 4.40387 77.7859 3.68702H79.1792L79.2533 4.7741H79.2972C79.4818 4.43632 79.7571 4.15755 80.1187 3.93482C80.5483 3.67522 81.0294 3.54395 81.5558 3.54395C82.2215 3.54395 82.7752 3.7534 83.2154 4.17377C83.763 4.68855 84.0368 5.45702 84.0368 6.47772V10.6431Z" fill="white"/>
<path d="M88.4089 10.6436H86.825V0.5H88.4089V10.6436Z" fill="white"/>
<path d="M97.743 7.10948C97.743 8.17885 97.4298 9.055 96.8035 9.74235C96.147 10.4489 95.2756 10.8014 94.1909 10.8014C93.1425 10.8014 92.3089 10.4636 91.6887 9.78513C91.0684 9.1081 90.7583 8.25408 90.7583 7.22453C90.7583 6.14778 91.0775 5.26425 91.7189 4.57838C92.3604 3.8925 93.2227 3.54883 94.3074 3.54883C95.3558 3.54883 96.1954 3.8866 96.8338 4.56363C97.4389 5.22148 97.743 6.07108 97.743 7.10948ZM96.097 7.15963C96.097 6.518 95.9548 5.96783 95.6719 5.5091C95.3406 4.9545 94.8656 4.6772 94.2514 4.6772C93.613 4.6772 93.1289 4.9545 92.7976 5.5091C92.5132 5.96783 92.3725 6.52685 92.3725 7.18765C92.3725 7.82928 92.5147 8.37945 92.7976 8.83818C93.141 9.39278 93.619 9.67008 94.2363 9.67008C94.8414 9.67008 95.3149 9.38835 95.6568 8.82343C95.9518 8.35585 96.097 7.80125 96.097 7.15963Z" fill="white"/>
<path d="M105.416 10.6436H103.992L103.874 9.84265H103.83C103.343 10.4813 102.649 10.8014 101.747 10.8014C101.074 10.8014 100.529 10.5905 100.12 10.1716C99.7474 9.79103 99.5613 9.31755 99.5613 8.75558C99.5613 7.90598 99.9244 7.25845 100.655 6.81005C101.384 6.36165 102.41 6.14188 103.731 6.1522V6.0224C103.731 5.10643 103.237 4.64918 102.25 4.64918C101.546 4.64918 100.926 4.82175 100.39 5.16395L100.068 4.14915C100.731 3.74943 101.549 3.54883 102.514 3.54883C104.378 3.54883 105.313 4.50758 105.313 6.42508V8.98568C105.313 9.6804 105.348 10.2335 105.416 10.6436ZM103.77 8.25408V7.18175C102.021 7.15225 101.147 7.61983 101.147 8.583C101.147 8.94585 101.247 9.21725 101.451 9.39868C101.655 9.5801 101.915 9.67008 102.225 9.67008C102.573 9.67008 102.899 9.5624 103.195 9.34853C103.493 9.13318 103.676 8.8603 103.744 8.52548C103.761 8.45025 103.77 8.3588 103.77 8.25408Z" fill="white"/>
<path d="M114.425 10.6436H113.018L112.944 9.527H112.9C112.451 10.3766 111.685 10.8014 110.61 10.8014C109.75 10.8014 109.035 10.4725 108.467 9.81462C107.9 9.15677 107.617 8.30275 107.617 7.25402C107.617 6.1286 107.924 5.21705 108.542 4.52085C109.139 3.87185 109.871 3.54735 110.743 3.54735C111.7 3.54735 112.37 3.86152 112.752 4.49135H112.782V0.5H114.369V8.77032C114.369 9.44735 114.387 10.0713 114.425 10.6436ZM112.782 7.71127V6.55192C112.782 6.35133 112.767 6.18907 112.738 6.06518C112.649 5.69348 112.457 5.38077 112.165 5.12855C111.87 4.87632 111.514 4.74948 111.104 4.74948C110.513 4.74948 110.05 4.9781 109.709 5.43682C109.372 5.89555 109.201 6.48112 109.201 7.1965C109.201 7.88385 109.363 8.4414 109.688 8.87062C110.032 9.32787 110.495 9.5565 111.074 9.5565C111.594 9.5565 112.01 9.36622 112.327 8.9842C112.632 8.63167 112.782 8.20687 112.782 7.71127Z" fill="white"/>
<path d="M127.984 7.10948C127.984 8.17885 127.671 9.055 127.045 9.74235C126.388 10.4489 125.52 10.8014 124.432 10.8014C123.387 10.8014 122.553 10.4636 121.93 9.78513C121.31 9.1081 121 8.25408 121 7.22453C121 6.14778 121.319 5.26425 121.96 4.57838C122.602 3.8925 123.464 3.54883 124.552 3.54883C125.597 3.54883 126.44 3.8866 127.075 4.56363C127.68 5.22148 127.984 6.07108 127.984 7.10948ZM126.341 7.15963C126.341 6.518 126.199 5.96783 125.916 5.5091C125.582 4.9545 125.11 4.6772 124.493 4.6772C123.857 4.6772 123.373 4.9545 123.039 5.5091C122.754 5.96783 122.614 6.52685 122.614 7.18765C122.614 7.82928 122.756 8.37945 123.039 8.83818C123.382 9.39278 123.86 9.67008 124.477 9.67008C125.083 9.67008 125.559 9.38835 125.901 8.82343C126.193 8.35585 126.341 7.80125 126.341 7.15963Z" fill="white"/>
<path d="M136.509 10.6431H134.925V6.66062C134.925 5.43342 134.447 4.81982 133.486 4.81982C133.016 4.81982 132.636 4.98797 132.343 5.32575C132.049 5.66352 131.902 6.06177 131.902 6.51755V10.6416H130.315V5.6768C130.315 5.06615 130.297 4.40387 130.26 3.68702H131.651L131.725 4.7741H131.769C131.955 4.43632 132.231 4.15755 132.591 3.93482C133.022 3.67522 133.501 3.54395 134.029 3.54395C134.694 3.54395 135.247 3.7534 135.688 4.17377C136.237 4.68855 136.509 5.45702 136.509 6.47772V10.6431Z" fill="white"/>
<path d="M147.179 4.84851H145.433V8.22626C145.433 9.08471 145.743 9.51393 146.358 9.51393C146.642 9.51393 146.878 9.49033 147.064 9.44166L147.105 10.6143C146.792 10.7293 146.38 10.7869 145.873 10.7869C145.247 10.7869 144.76 10.601 144.408 10.2293C144.054 9.85761 143.878 9.23221 143.878 8.35458V4.84851H142.836V3.69063H143.878V2.41623L145.432 1.95898V3.68916H147.177V4.84851H147.179Z" fill="white"/>
<path d="M155.572 10.6436H153.985V6.69057C153.985 5.4442 153.507 4.82027 152.55 4.82027C151.814 4.82027 151.312 5.18165 151.037 5.9044C150.99 6.05632 150.963 6.24217 150.963 6.46047V10.6421H149.379V0.5H150.963V4.69047H150.993C151.492 3.9279 152.208 3.54735 153.135 3.54735C153.792 3.54735 154.335 3.7568 154.766 4.17717C155.303 4.7008 155.572 5.4796 155.572 6.50915V10.6436Z" fill="white"/>
<path d="M164.23 6.83768C164.23 7.11498 164.209 7.34803 164.171 7.53831H159.416C159.437 8.22566 159.664 8.74928 160.104 9.11213C160.507 9.43663 161.026 9.59888 161.661 9.59888C162.365 9.59888 163.006 9.48973 163.584 9.26995L163.832 10.3438C163.156 10.6299 162.36 10.773 161.439 10.773C160.334 10.773 159.464 10.4559 158.835 9.82161C158.203 9.18736 157.89 8.33628 157.89 7.26838C157.89 6.21966 158.182 5.34646 158.77 4.65026C159.384 3.90686 160.215 3.53516 161.263 3.53516C162.289 3.53516 163.068 3.90686 163.594 4.65026C164.02 5.24026 164.23 5.97038 164.23 6.83768ZM162.717 6.43796C162.729 5.97923 162.625 5.58393 162.41 5.25058C162.135 4.82136 161.716 4.60601 161.148 4.60601C160.631 4.60601 160.209 4.81546 159.887 5.23583C159.623 5.57066 159.468 5.97038 159.416 6.43796H162.717Z" fill="white"/>
</svg>
