<svg width="176" height="42" viewBox="0 0 176 42" fill="none" xmlns="http://www.w3.org/2000/svg">
<path d="M56.6355 5.98366C56.6355 7.21528 56.2579 8.20169 55.5138 8.93734C54.6584 9.80944 53.5442 10.2482 52.1789 10.2482C50.874 10.2482 49.7598 9.80206 48.8458 8.92259C47.9299 8.03022 47.4729 6.93503 47.4729 5.62412C47.4729 4.31322 47.9299 3.21803 48.8458 2.33303C49.7598 1.44619 50.874 1 52.1789 1C52.8285 1 53.4479 1.13091 54.039 1.37428C54.6281 1.6195 55.1078 1.95137 55.4553 2.36069L54.6659 3.13875C54.0597 2.43997 53.2345 2.09519 52.1789 2.09519C51.2271 2.09519 50.4019 2.41969 49.7012 3.07422C49.0082 3.73059 48.6607 4.58056 48.6607 5.62412C48.6607 6.66769 49.0082 7.52503 49.7012 8.1814C50.4019 8.82856 51.2271 9.16043 52.1789 9.16043C53.1892 9.16043 54.039 8.82856 54.7094 8.17403C55.1512 7.74075 55.4024 7.14337 55.4685 6.38006H52.1789V5.31437H56.5676C56.6204 5.54484 56.6355 5.76794 56.6355 5.98366Z" fill="white" stroke="white" stroke-width="0.16" stroke-miterlimit="10"/>
<path d="M63.5983 2.28909H59.4759V5.09159H63.1923V6.15728H59.4759V8.95978H63.5983V10.0457H58.3088V1.20312H63.5983V2.28909Z" fill="white" stroke="white" stroke-width="0.16" stroke-miterlimit="10"/>
<path d="M68.5118 10.0457H67.3448V2.28909H64.8162V1.20312H71.0423V2.28909H68.5118V10.0457Z" fill="white" stroke="white" stroke-width="0.16" stroke-miterlimit="10"/>
<path d="M75.5481 10.0457V1.20312H76.7133V10.0457H75.5481Z" fill="white" stroke="white" stroke-width="0.16" stroke-miterlimit="10"/>
<path d="M81.8783 10.0457H80.7207V2.28909H78.1826V1.20312H84.4163V2.28909H81.8783V10.0457Z" fill="white" stroke="white" stroke-width="0.16" stroke-miterlimit="10"/>
<path d="M96.2036 8.90784C95.3103 9.80206 94.2037 10.2482 92.8837 10.2482C91.5561 10.2482 90.4495 9.80206 89.5563 8.90784C88.665 8.01547 88.2212 6.92028 88.2212 5.62412C88.2212 4.32797 88.665 3.23278 89.5563 2.34041C90.4495 1.44619 91.5561 1 92.8837 1C94.1962 1 95.3028 1.44619 96.196 2.34778C97.0949 3.24753 97.5387 4.33534 97.5387 5.62412C97.5387 6.92028 97.0949 8.01547 96.2036 8.90784ZM90.4193 8.16665C91.0916 8.82856 91.9093 9.16043 92.8837 9.16043C93.8506 9.16043 94.6758 8.82856 95.3406 8.16665C96.011 7.50475 96.3509 6.65478 96.3509 5.62412C96.3509 4.59347 96.011 3.7435 95.3406 3.08159C94.6758 2.41969 93.8506 2.08781 92.8837 2.08781C91.9093 2.08781 91.0916 2.41969 90.4193 3.08159C89.7489 3.7435 89.409 4.59347 89.409 5.62412C89.409 6.65478 89.7489 7.50475 90.4193 8.16665Z" fill="white" stroke="white" stroke-width="0.16" stroke-miterlimit="10"/>
<path d="M99.1763 10.0457V1.20312H100.593L104.996 8.08031H105.047L104.996 6.38037V1.20312H106.162V10.0457H104.945L100.334 2.82931H100.283L100.334 4.53662V10.0457H99.1763Z" fill="white" stroke="white" stroke-width="0.16" stroke-miterlimit="10"/>
<path d="M87.9345 22.9593C84.3861 22.9593 81.4874 25.5959 81.4874 29.2336C81.4874 32.8418 84.3861 35.506 87.9345 35.506C91.4904 35.506 94.3891 32.8418 94.3891 29.2336C94.3891 25.5959 91.4904 22.9593 87.9345 22.9593ZM87.9345 33.0354C85.9875 33.0354 84.3125 31.4664 84.3125 29.2336C84.3125 26.9713 85.9875 25.4299 87.9345 25.4299C89.8815 25.4299 91.564 26.9713 91.564 29.2336C91.564 31.4664 89.8815 33.0354 87.9345 33.0354ZM73.8676 22.9593C70.3117 22.9593 67.4205 25.5959 67.4205 29.2336C67.4205 32.8418 70.3117 35.506 73.8676 35.506C77.4216 35.506 80.3147 32.8418 80.3147 29.2336C80.3147 25.5959 77.4216 22.9593 73.8676 22.9593ZM73.8676 33.0354C71.9187 33.0354 70.2381 31.4664 70.2381 29.2336C70.2381 26.9713 71.9187 25.4299 73.8676 25.4299C75.8146 25.4299 77.4896 26.9713 77.4896 29.2336C77.4896 31.4664 75.8146 33.0354 73.8676 33.0354ZM57.1286 24.8823V27.5484H63.6493C63.4586 29.0381 62.9487 30.1333 62.1669 30.8966C61.2152 31.8185 59.7327 32.8418 57.1286 32.8418C53.1157 32.8418 49.9734 29.6798 49.9734 25.7618C49.9734 21.8438 53.1157 18.6818 57.1286 18.6818C59.2984 18.6818 60.8771 19.5096 62.0423 20.5827L63.9666 18.7039C62.3369 17.1847 60.169 16.0176 57.1286 16.0176C51.6257 16.0176 47.001 20.3891 47.001 25.7618C47.001 31.1345 51.6257 35.506 57.1286 35.506C60.1029 35.506 62.3369 34.5546 64.0931 32.7699C65.8928 31.0128 66.4536 28.5422 66.4536 26.5472C66.4536 25.9277 66.4008 25.358 66.3064 24.8823H57.1286ZM125.576 26.9492C125.046 25.5461 123.409 22.9593 120.074 22.9593C116.769 22.9593 114.017 25.5018 114.017 29.2336C114.017 32.7478 116.741 35.506 120.391 35.506C123.342 35.506 125.046 33.7489 125.746 32.7256L123.556 31.3004C122.825 32.344 121.83 33.0354 120.391 33.0354C118.961 33.0354 117.936 32.3956 117.279 31.1345L125.873 27.6627L125.576 26.9492ZM116.814 29.0381C116.741 26.6191 118.738 25.3801 120.17 25.3801C121.292 25.3801 122.243 25.9277 122.561 26.7113L116.814 29.0381ZM109.829 35.1244H112.654V16.6869H109.829V35.1244ZM105.202 24.3569H105.108C104.473 23.6231 103.263 22.9593 101.729 22.9593C98.5116 22.9593 95.5694 25.7176 95.5694 29.2539C95.5694 32.7699 98.5116 35.506 101.729 35.506C103.263 35.506 104.473 34.8367 105.108 34.0808H105.202V34.9806C105.202 37.3793 103.89 38.668 101.773 38.668C100.047 38.668 98.9761 37.4512 98.5342 36.4279L96.0774 37.429C96.7855 39.0921 98.6607 41.1387 101.773 41.1387C105.085 41.1387 107.88 39.2359 107.88 34.6063V23.341H105.202V24.3569ZM101.971 33.0354C100.024 33.0354 98.3945 31.4442 98.3945 29.2539C98.3945 27.0432 100.024 25.4299 101.971 25.4299C103.89 25.4299 105.402 27.0432 105.402 29.2539C105.402 31.4442 103.89 33.0354 101.971 33.0354ZM138.803 16.6869H132.046V35.1244H134.864V28.1384H138.803C141.932 28.1384 145.001 25.9277 145.001 22.4117C145.001 18.8975 141.925 16.6869 138.803 16.6869ZM138.877 25.5737H134.864V19.2515H138.877C140.98 19.2515 142.181 20.957 142.181 22.4117C142.181 23.8388 140.98 25.5737 138.877 25.5737ZM156.294 22.9243C154.258 22.9243 152.141 23.8019 151.27 25.747L153.771 26.7703C154.309 25.747 155.298 25.4152 156.345 25.4152C157.806 25.4152 159.289 26.2725 159.311 27.7862V27.9798C158.801 27.6922 157.71 27.2663 156.367 27.2663C153.674 27.2663 150.93 28.7136 150.93 31.4147C150.93 33.8854 153.136 35.4765 155.616 35.4765C157.512 35.4765 158.558 34.6413 159.215 33.6696H159.311V35.0949H162.033V28.0222C162.033 24.7533 159.532 22.9243 156.294 22.9243ZM155.954 33.028C155.032 33.028 153.748 32.5818 153.748 31.4664C153.748 30.0393 155.349 29.4917 156.736 29.4917C157.976 29.4917 158.558 29.7591 159.311 30.1112C159.09 31.8185 157.585 33.028 155.954 33.028ZM171.947 23.328L168.708 31.3207H168.612L165.264 23.328H162.225L167.256 34.4975L164.386 40.7128H167.33L175.082 23.328H171.947ZM146.549 35.1244H149.374V16.6869H146.549V35.1244Z" fill="white"/>
<path d="M0.764569 1.9937C0.320789 2.44726 0.0639648 3.15342 0.0639648 4.06792V36.6875C0.0639648 37.602 0.320789 38.3082 0.764569 38.7618L0.874099 38.8613L19.5959 20.5898V20.1583L0.874099 1.88676L0.764569 1.9937Z" fill="url(#paint0_linear_1_7492)"/>
<path d="M25.8296 26.6836L19.5959 20.59V20.1586L25.8372 14.065L25.9769 14.1443L33.3682 18.2503C35.4776 19.4155 35.4776 21.333 33.3682 22.5057L25.9769 26.6043L25.8296 26.6836Z" fill="url(#paint1_linear_1_7492)"/>
<path d="M25.9768 26.6044L19.5958 20.3744L0.764404 38.7621C1.46501 39.4812 2.60751 39.5678 3.90674 38.8488L25.9768 26.6044Z" fill="url(#paint2_linear_1_7492)"/>
<path d="M25.9768 14.144L3.90674 1.89965C2.60751 1.18797 1.46501 1.27462 0.764404 1.99368L19.5958 20.374L25.9768 14.144Z" fill="url(#paint3_linear_1_7492)"/>
<defs>
<linearGradient id="paint0_linear_1_7492" x1="17.9337" y1="37.0272" x2="-6.81327" y2="11.6807" gradientUnits="userSpaceOnUse">
<stop stop-color="#00A0FF"/>
<stop offset="0.0066" stop-color="#00A1FF"/>
<stop offset="0.2601" stop-color="#00BEFF"/>
<stop offset="0.5122" stop-color="#00D2FF"/>
<stop offset="0.7604" stop-color="#00DFFF"/>
<stop offset="1" stop-color="#00E3FF"/>
</linearGradient>
<linearGradient id="paint1_linear_1_7492" x1="36.115" y1="20.3722" x2="-0.440251" y2="20.3722" gradientUnits="userSpaceOnUse">
<stop stop-color="#FFE000"/>
<stop offset="0.4087" stop-color="#FFBD00"/>
<stop offset="0.7754" stop-color="#FFA500"/>
<stop offset="1" stop-color="#FF9C00"/>
</linearGradient>
<linearGradient id="paint2_linear_1_7492" x1="22.507" y1="16.9876" x2="-11.0519" y2="-17.3844" gradientUnits="userSpaceOnUse">
<stop stop-color="#FF3A44"/>
<stop offset="1" stop-color="#C31162"/>
</linearGradient>
<linearGradient id="paint3_linear_1_7492" x1="-3.97585" y1="49.6141" x2="11.0097" y2="34.2656" gradientUnits="userSpaceOnUse">
<stop stop-color="#32A071"/>
<stop offset="0.0685" stop-color="#2DA771"/>
<stop offset="0.4762" stop-color="#15CF74"/>
<stop offset="0.8009" stop-color="#06E775"/>
<stop offset="1" stop-color="#00F076"/>
</linearGradient>
</defs>
</svg>
