<svg width="48" height="48" viewBox="0 0 48 48" fill="none" xmlns="http://www.w3.org/2000/svg">
<path d="M8.92786 37.056C8.73586 37.152 8.54386 37.152 8.25586 37.152C8.44786 37.152 8.73586 37.152 8.92786 37.056Z" fill="#5EDD5B"/>
<path d="M11.4239 13.248C11.3279 13.152 11.3279 12.96 11.2319 12.864C11.3279 12.96 11.4239 13.056 11.4239 13.248Z" fill="#5EDD5B"/>
<path d="M39.2639 37.152H39.6479C39.5519 37.152 39.4559 37.152 39.2639 37.152ZM11.2319 12.864C11.3279 12.96 11.3279 13.152 11.4239 13.248C11.4239 13.056 11.3279 12.96 11.2319 12.864Z" fill="#5EDD5B"/>
<path d="M42.8159 12.48C42.1439 11.424 40.8959 10.848 39.7439 10.848C35.9999 6.336 30.3359 3.456 23.9999 3.456C17.6639 3.456 11.9999 6.336 8.25592 10.848C7.00792 10.848 5.85592 11.424 5.18392 12.48C3.07192 15.936 1.91992 19.968 1.91992 24C1.91992 28.032 3.07192 32.064 5.18392 35.52C5.85592 36.576 7.00792 37.152 8.06392 37.152H8.15992C10.9439 40.416 14.5919 42.816 18.9119 43.872C20.5439 44.256 22.1759 44.448 23.9039 44.448C25.6319 44.448 27.2639 44.256 28.8959 43.872C33.1199 42.816 36.8639 40.416 39.6479 37.152H39.8399C40.9919 37.152 42.1439 36.576 42.7199 35.52C44.9279 32.064 45.9839 28.032 45.9839 24C46.0799 19.968 44.9279 15.936 42.8159 12.48ZM11.0399 16.128C11.6159 15.264 11.7119 14.208 11.4239 13.248C11.4239 13.152 11.3279 12.96 11.2319 12.864C11.3279 12.96 11.3279 13.152 11.4239 13.248C14.4959 9.696 19.0079 7.488 23.9999 7.488C29.0879 7.488 33.5039 9.696 36.5759 13.248C36.2879 14.208 36.3839 15.264 36.9599 16.128C37.9199 17.664 38.5919 19.296 38.8799 21.024C34.3679 19.008 29.2799 17.856 23.9999 17.856C18.7199 17.856 13.6319 19.008 9.11992 21.024C9.50392 19.296 10.0799 17.568 11.0399 16.128ZM21.0239 40.32C16.9919 39.552 14.1119 37.728 11.4239 34.752C11.7119 33.792 11.6159 32.736 11.0399 31.872C9.98392 30.24 9.31192 28.32 9.02392 26.496C9.11992 26.496 9.31192 26.4 9.40792 26.4H9.50392C9.69592 26.4 9.88792 26.304 10.1759 26.304H11.0399C16.8959 26.304 21.6959 31.008 21.6959 36.864C21.5999 38.112 21.4079 39.264 21.0239 40.32ZM23.9999 28.032C22.1759 28.032 20.7359 26.592 20.7359 24.768C20.7359 22.944 22.1759 21.504 23.9999 21.504C25.8239 21.504 27.2639 22.944 27.2639 24.768C27.2639 26.592 25.8239 28.032 23.9999 28.032ZM36.9599 31.968C36.3839 32.832 36.2879 33.888 36.5759 34.848C34.1759 37.632 30.7199 39.648 26.8799 40.32C26.4959 39.264 26.3039 38.112 26.3039 36.96C26.3039 31.104 31.0079 26.4 36.8639 26.4C37.5359 26.4 38.2079 26.496 38.8799 26.592C38.6879 28.416 37.9199 30.24 36.9599 31.968Z" fill="#5EDD5B"/>
</svg>
