<svg width="486" height="242" viewBox="0 0 486 242" fill="none" xmlns="http://www.w3.org/2000/svg">
<path d="M242.998 242C377.202 242 485.996 238.46 485.996 234.092C485.996 229.725 377.202 226.185 242.998 226.185C108.794 226.185 0 229.725 0 234.092C0 238.46 108.794 242 242.998 242Z" fill="url(#paint0_linear_1_1804)"/>
<path d="M337.92 0C337.92 0 366.378 10.6523 367.341 23.2706C368.304 35.8889 356.105 42.2438 360.05 54.1432C363.994 66.0426 374.868 69.2041 371.54 78.4663C368.213 87.7285 357.642 95.6204 357.108 104.489C356.575 113.358 365.892 106.078 368.929 111.849C371.966 117.62 357.331 146.161 357.331 146.161C357.331 146.161 343.556 140.553 341.263 138.13C338.971 135.707 337.028 135.747 338.23 129.424C339.432 123.101 337.657 119.185 332.841 115.956C328.025 112.727 322.946 110.09 324.805 103.882C326.664 97.6738 354.008 89.1186 353.745 83.2642C353.482 77.4098 349.82 82.0727 348.503 71.8414C347.186 61.6101 334.97 55.9543 329.76 51.2835C324.55 46.6127 325.701 42.3192 329.506 39.4238C333.311 36.5284 342.74 29.5182 342.907 19.4021C343.074 9.286 337.92 0 337.92 0Z" fill="url(#paint1_linear_1_1804)"/>
<path d="M408.33 69.3904C406.375 67.9089 399.076 62.0823 396.154 60.3387C393.233 58.5951 385.961 54.7187 384.659 54.0673C384.058 53.7427 383.536 53.2896 383.13 52.7403C382.724 52.1911 382.444 51.5593 382.311 50.8899C382.104 49.746 382.001 46.648 381.515 45.5042C381.03 44.3603 380.321 43.9949 380.265 43.2919C380.21 42.5889 378.407 42.3506 378.407 42.3506L375.668 46.8983L373.762 50.0757C374.124 50.9852 377.579 55.5488 378.884 55.8705C380.19 56.1922 386.845 62.1816 388.397 63.5598C389.949 64.938 399.211 79.0378 399.211 79.0378L408.33 69.3904Z" fill="#F2DAD4"/>
<path d="M366.928 112.799C364.559 114.713 358.704 118.359 356.261 119.769C353.817 121.179 349.729 124.079 348.639 124.079C347.548 124.079 346.087 124.527 345.522 125.091C344.957 125.655 343.699 126.871 343.699 126.871L354.068 129.448C356.316 128.196 358.739 127.283 361.256 126.74C365.347 125.906 372.822 122.728 374.024 121.537C375.226 120.345 366.928 112.799 366.928 112.799Z" fill="#F2DAD4"/>
<path d="M372.362 81.1197C372.362 81.1197 375.101 85.8381 376.143 86.1876C377.186 86.5372 378.285 86.982 378.337 87.7287C378.388 88.4754 379.133 92.3479 379.976 92.4471C380.82 92.5464 382.022 90.8306 382.818 91.1325C383.614 91.4343 388.14 95.2274 390.182 94.9295C392.223 94.6316 399.734 90.5804 399.941 88.0385C400.148 85.4966 400.279 76.7706 399.193 75.9047C398.106 75.0389 391.232 69.399 387.793 68.8509C384.355 68.3028 376.94 72.775 374.902 74.8085C372.864 76.8421 371.622 79.9003 372.362 81.1197Z" fill="#F2DAD4"/>
<path d="M433.784 222.209C432.212 223.524 425.53 229.223 424.101 229.593C422.672 229.962 418.58 229.628 417.868 230.705C416.968 232.071 419.535 233.608 421.163 233.791C422.724 233.965 440.981 233.64 442.756 233.235C444.531 232.83 446.25 231.463 446.505 231.01C446.76 230.558 446.903 225.347 445.896 224.08C444.889 222.813 433.784 222.209 433.784 222.209Z" fill="url(#paint2_linear_1_1804)"/>
<path d="M431.215 134.794C431.215 134.794 433.273 172.367 434.196 177.383C435.119 182.4 437.106 182.662 437.38 191.769C437.655 200.876 436.719 214.726 435.052 217.947C433.384 221.168 431.665 224.175 436.003 225.533C440.341 226.891 444.218 226.895 446.013 225.966C447.808 225.037 448.238 222.669 448.74 217.804C449.241 212.939 450.375 181.995 450.375 177.173C450.375 172.351 449.814 128.447 448.875 126.839C447.936 125.23 431.215 134.794 431.215 134.794Z" fill="url(#paint3_linear_1_1804)"/>
<path d="M452.343 223.611C451.671 225.2 448.14 228.675 445.879 229.783C443.619 230.892 441.004 231.996 439.141 232.194C437.278 232.393 436.287 232.552 436.009 233.66C435.73 234.768 439.535 236.269 443.698 236.23C447.862 236.19 457.816 234.887 459.082 234.967C460.347 235.046 464.753 235.558 465.546 234.768C466.338 233.978 465.944 226.102 465.745 225.272C465.546 224.441 452.343 223.611 452.343 223.611Z" fill="url(#paint4_linear_1_1804)"/>
<path d="M432.977 135.552C432.977 135.552 441.888 173.649 443.842 178.523C445.797 183.396 449.634 187.555 450.187 190.633C450.74 193.711 453.825 215.655 453.112 219.114C452.4 222.574 451.373 223.845 452.085 224.317C452.798 224.79 457.144 226.132 459.122 227.495C461.101 228.857 465.921 226.863 466.315 225.68C466.709 224.496 464.102 193.191 462.521 187.582C460.941 181.974 458.649 173.534 457.224 170.297C455.799 167.06 455.958 162.33 456.197 157.675C456.436 153.02 455.003 146.157 456.595 142.924C458.187 139.691 459.918 138.587 460.233 133.221C460.547 127.855 448.233 120.038 440.145 121.572C435.333 122.465 431.599 129.722 432.977 135.552Z" fill="#192B59"/>
<path d="M389.174 96.6367C385.855 100.299 381.142 105.617 378.03 106.518C374.917 107.42 374.639 106.173 372.7 107.69C370.762 109.207 365.568 112.456 365.635 113.648C365.703 114.839 373.807 124.082 375.677 123.323C377.548 122.564 381.91 118.072 386.062 115.654C390.213 113.235 399.149 107.5 400.327 107.984C401.505 108.469 408.462 112.961 412.391 117.56C416.319 122.159 419.34 126.298 419.34 129.396C419.302 132.429 418.527 135.409 417.083 138.078C415.826 140.247 413.704 141.275 414.85 142.761C415.997 144.246 418.516 140.648 421.147 140.819C423.778 140.989 431.683 139.456 434.369 135.568C437.056 131.68 439.639 127.394 444.96 128.419C450.282 129.444 456.865 132.943 459.329 132.248C462.513 131.346 459.846 126.477 456.065 120.936C452.284 115.395 433.442 94.4483 430.381 88.8481C427.32 83.2479 421.278 74.5894 415.348 71.9482C409.417 69.307 405.059 66.8921 403.009 68.8224C400.96 70.7527 399.897 74.0135 399.897 74.8714C399.897 75.7293 398.341 74.5497 398.341 74.5497C398.341 74.5497 394.054 82.9818 394.169 84.6579C394.285 86.3339 395.188 88.6018 393.15 89.6941C391.113 90.7863 389.513 91.4893 389.317 93.2091C389.122 94.9289 389.735 96.0171 389.174 96.6367Z" fill="url(#paint5_linear_1_1804)"/>
<path d="M382.473 62.3565C378.353 62.9443 374.114 65.2916 372.124 69.2435C370.134 73.1954 369.111 76.5794 369.111 79.026C369.111 81.4726 371.201 83.6809 372.506 83.248C375.376 82.2908 373.032 77.4492 374.52 76.7263C376.721 75.6619 377.203 77.4611 377.307 78.6367C377.41 79.8124 378.719 78.6844 380.606 79.2961C382.493 79.9077 382.966 81.413 384.236 81.3177C385.506 81.2224 386.361 79.5781 385.828 77.9774C385.295 76.3768 385.215 74.4028 386.393 74.2122C387.571 74.0215 391.11 76.5198 392.523 78.4501C393.936 80.3804 397.112 76.1425 397.506 74.5895C397.9 73.0365 394.545 68.7113 391.651 66.5506C388.758 64.39 385.446 61.9593 382.473 62.3565Z" fill="#E64D4E"/>
<path d="M325.578 127.958C325.452 127.967 325.325 127.949 325.206 127.906C325.087 127.864 324.978 127.798 324.886 127.711C324.794 127.625 324.72 127.521 324.67 127.405C324.62 127.29 324.594 127.165 324.594 127.039C324.594 126.913 324.62 126.788 324.67 126.672C324.72 126.557 324.794 126.452 324.886 126.366C324.978 126.28 325.087 126.214 325.206 126.171C325.325 126.129 325.452 126.111 325.578 126.119C326.782 126.084 327.926 125.582 328.766 124.719C329.605 123.856 330.075 122.701 330.075 121.498C330.075 120.296 329.605 119.14 328.766 118.277C327.926 117.415 326.782 116.912 325.578 116.877C325.452 116.885 325.325 116.868 325.206 116.825C325.087 116.783 324.978 116.716 324.886 116.63C324.794 116.544 324.72 116.44 324.67 116.324C324.62 116.208 324.594 116.084 324.594 115.958C324.594 115.831 324.62 115.707 324.67 115.591C324.72 115.475 324.794 115.371 324.886 115.285C324.978 115.199 325.087 115.132 325.206 115.09C325.325 115.047 325.452 115.03 325.578 115.038C327.267 115.08 328.873 115.779 330.053 116.986C331.233 118.193 331.893 119.812 331.893 121.498C331.893 123.184 331.233 124.804 330.053 126.011C328.873 127.218 327.267 127.916 325.578 127.958Z" fill="#192B59"/>
<path d="M290.375 209.602C290.375 209.602 369.533 210.48 379.65 209.602C389.768 208.724 377.66 173.65 377.66 173.65L329.353 150.896L287.027 163.125L290.375 209.602Z" fill="#192B59"/>
<path d="M19.7246 200.089C19.7246 200.089 36.2901 203.7 65.5604 206.869C94.8306 210.039 113.971 209.602 113.971 209.602L92.9122 163.895L56.7284 148.909L30.0333 160.062L19.7246 177.256V200.089Z" fill="#192B59"/>
<path d="M395.372 150.582C379.746 134.21 353.831 129.531 342.893 126.672C331.956 123.812 318.415 119.006 309.818 114.848C301.221 110.689 249.136 84.5708 218.672 78.3351C188.207 72.0994 153.954 73.1718 153.954 73.1718L95.9865 73.9662C81.3344 74.1647 67.1182 78.9694 55.3608 87.6966C40.67 98.5991 21.8596 112.568 18.5083 115.07C15.4197 117.378 7.51107 120.19 6.53593 147.015C5.56079 173.84 5.06724 192.369 10.4445 196.265C15.8217 200.161 21.191 203.335 21.191 203.335L21.9591 203.418C21.861 202.28 21.8105 201.128 21.8079 199.963C21.8105 189.466 25.9635 179.395 33.3646 171.937C40.7657 164.478 50.8171 160.235 61.3351 160.13C83.1504 159.915 101.268 177.474 101.658 199.24C101.74 203.505 101.136 207.756 99.8672 211.83L102.57 212.12L189.764 213.82L294.96 214.936L295.238 202.457C295.238 191.89 299.445 181.757 306.932 174.285C314.42 166.814 324.575 162.616 335.164 162.616C345.752 162.616 355.907 166.814 363.395 174.285C370.882 181.757 375.089 191.89 375.089 202.457L375.172 216.461L397.063 216.517C397.063 216.517 408.912 215.171 410.596 201.528C412.28 187.884 410.998 166.953 395.372 150.582Z" fill="url(#paint6_linear_1_1804)"/>
<path d="M62.3868 234.092C79.6954 234.092 93.7268 220.091 93.7268 202.819C93.7268 185.547 79.6954 171.545 62.3868 171.545C45.0782 171.545 31.0469 185.547 31.0469 202.819C31.0469 220.091 45.0782 234.092 62.3868 234.092Z" fill="#020000"/>
<path d="M62.3846 224.635C74.4593 224.635 84.2477 214.867 84.2477 202.818C84.2477 190.769 74.4593 181.001 62.3846 181.001C50.3099 181.001 40.5215 190.769 40.5215 202.818C40.5215 214.867 50.3099 224.635 62.3846 224.635Z" fill="url(#paint7_linear_1_1804)"/>
<path d="M66.4681 195.467C67.1561 195.845 67.7872 196.318 68.3428 196.873C68.6267 197.159 69.0029 197.336 69.405 197.372C69.807 197.409 70.209 197.302 70.5398 197.071L74.8703 193.997C75.0659 193.858 75.2299 193.68 75.3515 193.473C75.4731 193.266 75.5495 193.036 75.5758 192.798C75.6021 192.56 75.5777 192.319 75.5041 192.091C75.4305 191.863 75.3095 191.653 75.1489 191.475C73.1539 189.248 70.61 187.58 67.7696 186.637C67.5149 186.556 67.2446 186.536 66.9806 186.578C66.7166 186.621 66.4665 186.726 66.2507 186.883C66.0349 187.041 65.8595 187.247 65.7389 187.486C65.6183 187.724 65.5558 187.987 65.5566 188.254V193.965C65.5599 194.274 65.6462 194.576 65.8065 194.84C65.9669 195.104 66.1954 195.321 66.4681 195.467Z" fill="#192B59"/>
<path d="M56.421 196.872C56.9787 196.319 57.611 195.846 58.2996 195.466C58.5724 195.321 58.8009 195.104 58.9612 194.84C59.1215 194.576 59.2078 194.274 59.2111 193.965V188.262C59.2119 187.995 59.1494 187.732 59.0288 187.493C58.9082 187.255 58.7328 187.049 58.517 186.891C58.3012 186.734 58.0511 186.629 57.7871 186.586C57.5231 186.544 57.2528 186.564 56.9981 186.645C54.1572 187.587 51.6131 189.255 49.6188 191.483C49.4582 191.661 49.3372 191.871 49.2636 192.099C49.19 192.327 49.1656 192.568 49.1919 192.806C49.2182 193.044 49.2947 193.274 49.4163 193.481C49.5378 193.687 49.7018 193.866 49.8974 194.005L54.2279 197.079C54.559 197.308 54.9609 197.414 55.3623 197.376C55.7636 197.338 56.1387 197.16 56.421 196.872Z" fill="#192B59"/>
<path d="M70.4856 205.305C70.406 205.563 70.3184 205.813 70.2189 206.059C70.1197 206.298 70.0767 206.556 70.0933 206.813C70.1099 207.071 70.1855 207.321 70.3145 207.545L73.3593 212.803C73.5027 213.049 73.7053 213.254 73.9486 213.401C74.1919 213.548 74.4683 213.632 74.7525 213.645C75.0366 213.658 75.3195 213.6 75.5753 213.476C75.8312 213.352 76.0518 213.166 76.2171 212.935C78.3645 210.012 79.5192 206.482 79.5127 202.858C79.5127 202.461 79.5127 202.064 79.4729 201.667C79.4506 201.366 79.3487 201.078 79.1777 200.83C79.0066 200.582 78.7725 200.384 78.4994 200.256C78.2263 200.128 77.9241 200.075 77.6237 200.103C77.3233 200.13 77.0357 200.237 76.7902 200.412L71.1503 204.415C70.835 204.629 70.6009 204.942 70.4856 205.305Z" fill="#192B59"/>
<path d="M65.567 212.006C65.3982 211.708 65.1414 211.469 64.8315 211.322C64.5217 211.174 64.1739 211.126 63.8356 211.184C62.8754 211.348 61.8942 211.348 60.9341 211.184C60.5958 211.126 60.248 211.174 59.9381 211.322C59.6283 211.469 59.3714 211.708 59.2027 212.006L56.4564 216.748C56.329 216.968 56.2528 217.214 56.2334 217.467C56.2141 217.721 56.252 217.975 56.3445 218.212C56.437 218.449 56.5816 218.662 56.7677 218.835C56.9538 219.009 57.1765 219.139 57.4196 219.215C60.657 220.194 64.1127 220.194 67.3501 219.215C67.5932 219.139 67.8161 219.009 68.0022 218.836C68.1882 218.662 68.3327 218.449 68.4249 218.212C68.517 217.975 68.5545 217.72 68.5345 217.467C68.5145 217.213 68.4375 216.968 68.3093 216.748L65.567 212.006Z" fill="#192B59"/>
<path d="M54.5574 206.059C54.4579 205.813 54.3703 205.563 54.2907 205.305C54.1762 204.941 53.942 204.626 53.626 204.411L47.9861 200.408C47.7407 200.233 47.453 200.126 47.1526 200.099C46.8523 200.071 46.55 200.124 46.2769 200.252C46.0039 200.38 45.7698 200.578 45.5987 200.826C45.4276 201.074 45.3257 201.363 45.3035 201.663C45.2756 202.06 45.2637 202.457 45.2637 202.854C45.2579 206.479 46.4126 210.011 48.5593 212.935C48.725 213.166 48.946 213.352 49.2022 213.476C49.4583 213.6 49.7414 213.658 50.0258 213.645C50.3102 213.632 50.5868 213.548 50.8305 213.401C51.0742 213.254 51.2772 213.049 51.421 212.804L54.4659 207.545C54.593 207.32 54.6673 207.07 54.6832 206.813C54.6991 206.555 54.656 206.298 54.5574 206.059Z" fill="#192B59"/>
<path d="M60.8977 199.208C60.8969 199.453 60.8234 199.692 60.6865 199.895C60.5495 200.099 60.3553 200.257 60.1283 200.35C59.9014 200.443 59.6518 200.467 59.4112 200.419C59.1705 200.371 58.9497 200.252 58.7764 200.079C58.6031 199.905 58.4852 199.685 58.4376 199.444C58.39 199.204 58.4149 198.955 58.509 198.729C58.6031 198.503 58.7622 198.309 58.9664 198.173C59.1705 198.037 59.4104 197.965 59.6559 197.965C59.8193 197.965 59.9811 197.997 60.132 198.06C60.2829 198.122 60.42 198.214 60.5354 198.329C60.6507 198.445 60.7421 198.582 60.8043 198.733C60.8665 198.883 60.8982 199.045 60.8977 199.208Z" fill="#192B59"/>
<path d="M66.8041 199.208C66.8041 199.454 66.7309 199.695 66.5939 199.899C66.4568 200.104 66.262 200.263 66.0341 200.357C65.8062 200.451 65.5556 200.475 65.3138 200.427C65.072 200.379 64.85 200.26 64.676 200.086C64.5019 199.911 64.3836 199.69 64.336 199.448C64.2883 199.207 64.3136 198.957 64.4085 198.73C64.5034 198.502 64.6637 198.309 64.8691 198.172C65.0745 198.036 65.3157 197.964 65.5623 197.965C65.7257 197.965 65.8875 197.997 66.0384 198.06C66.1893 198.122 66.3264 198.214 66.4418 198.329C66.5571 198.445 66.6485 198.582 66.7107 198.733C66.7729 198.883 66.8046 199.045 66.8041 199.208Z" fill="#192B59"/>
<path d="M59.2121 204.305C59.2121 204.55 59.1393 204.789 59.0029 204.993C58.8664 205.197 58.6725 205.356 58.4456 205.449C58.2186 205.543 57.969 205.568 57.7281 205.52C57.4872 205.472 57.2659 205.354 57.0922 205.181C56.9186 205.008 56.8003 204.787 56.7524 204.546C56.7045 204.306 56.7291 204.057 56.823 203.83C56.917 203.604 57.0762 203.41 57.2804 203.274C57.4846 203.138 57.7247 203.065 57.9703 203.065C58.2997 203.065 58.6155 203.196 58.8484 203.428C59.0813 203.661 59.2121 203.976 59.2121 204.305Z" fill="#192B59"/>
<path d="M68.8762 204.305C68.8762 204.55 68.8034 204.789 68.6669 204.993C68.5305 205.197 68.3365 205.356 68.1096 205.449C67.8827 205.543 67.633 205.568 67.3921 205.52C67.1512 205.472 66.93 205.354 66.7563 205.181C66.5826 205.008 66.4644 204.787 66.4164 204.546C66.3685 204.306 66.3931 204.057 66.4871 203.83C66.5811 203.604 66.7403 203.41 66.9445 203.274C67.1487 203.138 67.3888 203.065 67.6344 203.065C67.7975 203.065 67.959 203.097 68.1096 203.16C68.2603 203.222 68.3972 203.313 68.5125 203.428C68.6278 203.543 68.7193 203.68 68.7817 203.83C68.8441 203.981 68.8762 204.142 68.8762 204.305Z" fill="#192B59"/>
<path d="M62.3864 209.598C63.0722 209.598 63.6282 209.044 63.6282 208.359C63.6282 207.675 63.0722 207.12 62.3864 207.12C61.7005 207.12 61.1445 207.675 61.1445 208.359C61.1445 209.044 61.7005 209.598 62.3864 209.598Z" fill="#192B59"/>
<path d="M335.506 234.092C352.815 234.092 366.846 220.091 366.846 202.819C366.846 185.547 352.815 171.545 335.506 171.545C318.197 171.545 304.166 185.547 304.166 202.819C304.166 220.091 318.197 234.092 335.506 234.092Z" fill="#020000"/>
<path d="M335.504 224.635C347.578 224.635 357.367 214.867 357.367 202.818C357.367 190.769 347.578 181.001 335.504 181.001C323.429 181.001 313.641 190.769 313.641 202.818C313.641 214.867 323.429 224.635 335.504 224.635Z" fill="url(#paint8_linear_1_1804)"/>
<path d="M339.591 195.467C340.279 195.846 340.91 196.32 341.466 196.873C341.749 197.159 342.125 197.336 342.526 197.372C342.927 197.408 343.329 197.302 343.659 197.071L347.993 193.997C348.189 193.858 348.352 193.679 348.474 193.473C348.595 193.266 348.671 193.036 348.697 192.798C348.723 192.56 348.698 192.319 348.624 192.091C348.55 191.863 348.429 191.653 348.268 191.475C346.276 189.247 343.733 187.579 340.893 186.638C340.638 186.555 340.367 186.535 340.103 186.577C339.838 186.619 339.587 186.724 339.371 186.882C339.155 187.039 338.979 187.246 338.858 187.484C338.737 187.723 338.675 187.987 338.676 188.254V193.966C338.68 194.275 338.767 194.577 338.928 194.841C339.089 195.105 339.318 195.321 339.591 195.467Z" fill="#192B59"/>
<path d="M329.557 196.872C330.114 196.318 330.747 195.845 331.436 195.466C331.709 195.321 331.937 195.104 332.098 194.84C332.258 194.576 332.344 194.274 332.347 193.965V188.262C332.348 187.995 332.286 187.732 332.165 187.493C332.045 187.255 331.869 187.049 331.653 186.891C331.438 186.734 331.187 186.629 330.923 186.586C330.659 186.544 330.389 186.564 330.134 186.645C327.293 187.586 324.749 189.254 322.755 191.483C322.595 191.661 322.474 191.871 322.401 192.099C322.327 192.326 322.302 192.567 322.328 192.805C322.354 193.043 322.43 193.273 322.551 193.479C322.672 193.686 322.835 193.865 323.03 194.005L327.364 197.079C327.695 197.308 328.097 197.414 328.499 197.376C328.9 197.338 329.275 197.16 329.557 196.872Z" fill="#192B59"/>
<path d="M343.601 205.305C343.527 205.561 343.438 205.813 343.335 206.059C343.237 206.298 343.196 206.556 343.213 206.814C343.23 207.071 343.306 207.321 343.434 207.545L346.479 212.803C346.622 213.049 346.825 213.254 347.068 213.401C347.312 213.548 347.588 213.632 347.872 213.645C348.156 213.658 348.439 213.6 348.695 213.476C348.951 213.352 349.171 213.166 349.337 212.935C351.487 210.013 352.646 206.483 352.644 202.858C352.644 202.461 352.644 202.064 352.601 201.667C352.578 201.366 352.476 201.078 352.305 200.83C352.134 200.582 351.9 200.384 351.627 200.256C351.354 200.128 351.052 200.075 350.751 200.103C350.451 200.13 350.163 200.237 349.918 200.412L344.286 204.411C343.963 204.623 343.722 204.938 343.601 205.305Z" fill="#192B59"/>
<path d="M338.689 212.005C338.52 211.708 338.263 211.469 337.953 211.322C337.643 211.175 337.296 211.126 336.957 211.183C335.996 211.347 335.013 211.347 334.052 211.183C333.714 211.126 333.366 211.175 333.056 211.322C332.747 211.469 332.49 211.708 332.32 212.005L329.578 216.748C329.45 216.967 329.373 217.213 329.353 217.466C329.333 217.72 329.37 217.974 329.463 218.211C329.555 218.448 329.699 218.662 329.885 218.835C330.071 219.009 330.294 219.138 330.537 219.214C333.781 220.198 337.244 220.198 340.488 219.214C340.731 219.138 340.954 219.009 341.14 218.835C341.326 218.662 341.47 218.448 341.563 218.211C341.655 217.974 341.692 217.72 341.672 217.466C341.652 217.213 341.575 216.967 341.447 216.748L338.689 212.005Z" fill="#192B59"/>
<path d="M327.677 206.059C327.577 205.813 327.486 205.563 327.41 205.305C327.294 204.94 327.058 204.626 326.741 204.411L321.105 200.408C320.86 200.233 320.572 200.126 320.272 200.099C319.971 200.071 319.669 200.124 319.396 200.252C319.123 200.38 318.889 200.578 318.718 200.826C318.547 201.074 318.445 201.363 318.423 201.663C318.395 202.06 318.379 202.457 318.379 202.854C318.374 206.478 319.529 210.008 321.675 212.931C321.84 213.162 322.06 213.348 322.316 213.472C322.572 213.596 322.855 213.654 323.139 213.641C323.423 213.628 323.7 213.544 323.943 213.397C324.186 213.25 324.389 213.045 324.532 212.8L327.569 207.545C327.699 207.322 327.776 207.072 327.795 206.815C327.813 206.557 327.773 206.299 327.677 206.059Z" fill="#192B59"/>
<path d="M334.025 199.208C334.025 199.454 333.952 199.695 333.815 199.899C333.677 200.104 333.483 200.263 333.255 200.357C333.027 200.451 332.776 200.475 332.535 200.427C332.293 200.379 332.071 200.26 331.897 200.086C331.723 199.911 331.604 199.69 331.557 199.448C331.509 199.207 331.534 198.957 331.629 198.73C331.724 198.502 331.884 198.309 332.09 198.172C332.295 198.036 332.536 197.964 332.783 197.965C332.946 197.965 333.108 197.997 333.259 198.06C333.41 198.122 333.547 198.214 333.662 198.329C333.778 198.445 333.869 198.582 333.931 198.733C333.994 198.883 334.025 199.045 334.025 199.208Z" fill="#192B59"/>
<path d="M339.907 199.208C339.907 199.453 339.833 199.692 339.696 199.895C339.559 200.099 339.365 200.257 339.138 200.35C338.911 200.443 338.662 200.467 338.421 200.419C338.18 200.371 337.959 200.252 337.786 200.079C337.613 199.905 337.495 199.685 337.447 199.444C337.4 199.204 337.425 198.955 337.519 198.729C337.613 198.503 337.772 198.309 337.976 198.173C338.18 198.037 338.42 197.965 338.666 197.965C338.829 197.965 338.991 197.997 339.142 198.06C339.293 198.122 339.43 198.214 339.545 198.329C339.661 198.445 339.752 198.582 339.814 198.733C339.876 198.883 339.908 199.045 339.907 199.208Z" fill="#192B59"/>
<path d="M332.343 204.305C332.344 204.551 332.271 204.792 332.135 204.997C331.998 205.202 331.804 205.362 331.576 205.456C331.348 205.551 331.097 205.576 330.855 205.528C330.613 205.48 330.391 205.362 330.216 205.188C330.042 205.014 329.923 204.792 329.875 204.55C329.827 204.309 329.852 204.058 329.947 203.831C330.042 203.604 330.202 203.41 330.408 203.273C330.613 203.137 330.855 203.065 331.101 203.065C331.431 203.065 331.747 203.196 331.979 203.428C332.212 203.661 332.343 203.976 332.343 204.305Z" fill="#192B59"/>
<path d="M341.995 204.305C341.995 204.55 341.923 204.789 341.786 204.993C341.65 205.197 341.456 205.356 341.229 205.449C341.002 205.543 340.752 205.568 340.511 205.52C340.27 205.472 340.049 205.354 339.875 205.181C339.702 205.008 339.583 204.787 339.536 204.546C339.488 204.306 339.512 204.057 339.606 203.83C339.7 203.604 339.859 203.41 340.064 203.274C340.268 203.138 340.508 203.065 340.754 203.065C341.083 203.065 341.399 203.196 341.632 203.428C341.865 203.661 341.995 203.976 341.995 204.305Z" fill="#192B59"/>
<path d="M336.747 208.359C336.747 208.604 336.674 208.844 336.538 209.048C336.402 209.252 336.208 209.41 335.981 209.504C335.754 209.598 335.504 209.623 335.263 209.575C335.022 209.527 334.801 209.409 334.627 209.236C334.454 209.062 334.335 208.841 334.288 208.601C334.24 208.361 334.264 208.112 334.358 207.885C334.452 207.659 334.611 207.465 334.816 207.329C335.02 207.193 335.26 207.12 335.505 207.12C335.835 207.12 336.151 207.251 336.384 207.483C336.616 207.715 336.747 208.031 336.747 208.359Z" fill="#192B59"/>
<path d="M40.5978 122.847C40.2754 121.024 31.5468 112.862 26.8741 108.847C22.7506 111.909 19.6819 114.193 18.5157 115.07C15.4271 117.378 7.51848 120.19 6.54334 147.015C6.54334 147.202 6.54334 147.389 6.52344 147.575C12.3624 144.597 28.4144 133.964 33.123 130.842C38.6077 127.196 40.952 124.845 40.5978 122.847Z" fill="url(#paint9_linear_1_1804)"/>
<path d="M291.883 152.651C289.83 138.222 286.064 127.816 286.025 127.713C285.972 127.572 285.865 127.458 285.728 127.396C285.591 127.334 285.435 127.328 285.294 127.381C285.153 127.434 285.039 127.54 284.977 127.677C284.914 127.813 284.909 127.969 284.962 128.11C285.002 128.213 288.731 138.528 290.765 152.846C292.632 165.953 293.416 185.152 286.641 202.493L176.458 201.159C176.788 195.03 179.38 142.376 173.274 119.809C173.235 119.665 173.14 119.542 173.01 119.467C172.88 119.393 172.726 119.373 172.581 119.412C172.437 119.452 172.315 119.548 172.24 119.678C172.166 119.808 172.145 119.962 172.183 120.107C178.249 142.555 175.642 195.209 175.324 201.131L111.947 199.88C111.657 197.207 110.168 184.986 106.857 180.648C103.45 176.184 70.5813 136.165 67.5126 132.431L78.9795 108.227C79.0111 108.16 79.0292 108.087 79.0326 108.013C79.036 107.938 79.0247 107.864 78.9994 107.794C78.9741 107.725 78.9352 107.66 78.885 107.605C78.8348 107.551 78.7743 107.506 78.7069 107.474C78.6394 107.443 78.5665 107.425 78.4921 107.421C78.4177 107.418 78.3433 107.429 78.2733 107.455C78.2032 107.48 78.1389 107.519 78.0839 107.569C78.0288 107.619 77.9843 107.679 77.9526 107.747L66.3345 132.272C66.2892 132.369 66.2723 132.477 66.2857 132.583C66.2991 132.689 66.3422 132.789 66.4101 132.872C66.7683 133.309 102.411 176.692 105.957 181.328C109.408 185.851 110.857 200.34 110.873 200.487C110.882 200.632 110.947 200.767 111.054 200.865C111.16 200.962 111.301 201.015 111.446 201.012L175.865 202.283L287.028 203.629C287.141 203.629 287.252 203.595 287.345 203.531C287.439 203.467 287.511 203.377 287.553 203.272C294.574 185.585 293.782 165.981 291.883 152.651Z" fill="#A4CBE0"/>
<path d="M47.9504 121.616C47.9507 119.622 48.7059 117.702 50.0646 116.24C51.4234 114.778 53.2854 113.882 55.2779 113.732C55.0749 113.732 54.8799 113.7 54.6689 113.7C52.5953 113.747 50.6223 114.601 49.1722 116.081C47.7221 117.561 46.9102 119.548 46.9102 121.618C46.9102 123.688 47.7221 125.675 49.1722 127.155C50.6223 128.635 52.5953 129.489 54.6689 129.536C54.8759 129.536 55.0669 129.536 55.2779 129.504C53.2851 129.353 51.423 128.456 50.0643 126.994C48.7057 125.531 47.9506 123.61 47.9504 121.616Z" fill="#A4CBE0"/>
<path d="M98.0708 129.356L84.0248 128.165C82.9371 128.071 81.9309 127.551 81.2262 126.719C80.5214 125.887 80.1753 124.81 80.2635 123.725C80.3588 122.64 80.88 121.636 81.7136 120.933C82.5471 120.23 83.6254 119.884 84.7134 119.971L98.7594 121.143C99.8467 121.238 100.852 121.758 101.557 122.59C102.261 123.422 102.608 124.498 102.521 125.583C102.431 126.672 101.913 127.681 101.078 128.389C100.244 129.096 99.1622 129.444 98.0708 129.356Z" fill="#A4CBE0"/>
<path d="M202.307 138.917L188.261 137.745C187.174 137.65 186.168 137.13 185.463 136.298C184.759 135.467 184.412 134.391 184.5 133.305C184.593 132.219 185.113 131.214 185.947 130.51C186.781 129.806 187.861 129.46 188.949 129.548L202.987 130.719C204.076 130.814 205.082 131.335 205.788 132.167C206.493 133 206.84 134.077 206.753 135.164C206.657 136.248 206.137 137.251 205.304 137.954C204.471 138.657 203.394 139.003 202.307 138.917Z" fill="#A4CBE0"/>
<path d="M204.053 137.376L191.074 136.292C190.411 136.234 189.797 135.917 189.367 135.409C188.936 134.902 188.725 134.245 188.778 133.583C188.835 132.921 189.153 132.308 189.662 131.879C190.17 131.45 190.828 131.238 191.492 131.291L204.471 132.375C205.135 132.434 205.748 132.752 206.178 133.259C206.608 133.766 206.82 134.422 206.768 135.084C206.71 135.746 206.392 136.359 205.884 136.788C205.375 137.217 204.717 137.429 204.053 137.376Z" fill="url(#paint10_linear_1_1804)"/>
<path d="M99.7683 127.892L86.7889 126.808C86.1254 126.75 85.5116 126.433 85.0814 125.925C84.6511 125.418 84.4394 124.761 84.4924 124.099C84.5501 123.437 84.868 122.825 85.3767 122.396C85.8853 121.967 86.5433 121.757 87.2069 121.811L100.186 122.895C100.85 122.951 101.464 123.267 101.895 123.774C102.325 124.281 102.537 124.938 102.483 125.6C102.426 126.263 102.109 126.876 101.6 127.305C101.091 127.735 100.432 127.946 99.7683 127.892Z" fill="url(#paint11_linear_1_1804)"/>
<path d="M54.668 101.78C54.668 101.78 64.8095 83.8477 84.4517 82.3185C104.094 80.7894 189.823 78.3468 214.93 84.2448C240.037 90.1429 257.59 96.1165 269.634 101.78C281.678 107.444 314.172 122.271 314.303 125.031C314.434 127.791 290.852 132.526 282.024 132.526C273.196 132.526 198.293 126.048 168.254 122.954C138.216 119.86 86.5054 117.695 75.8624 113.497C65.2194 109.299 55.1257 104.509 54.668 101.78Z" fill="#192B59"/>
<path d="M300.069 117.354H288.646C285.342 117.354 282.664 120.026 282.664 123.323V125.075C282.664 128.372 285.342 131.044 288.646 131.044H300.069C303.373 131.044 306.052 128.372 306.052 125.075V123.323C306.052 120.026 303.373 117.354 300.069 117.354Z" fill="url(#paint12_linear_1_1804)"/>
<path d="M390.685 181.955L393.025 201.134C393.052 201.366 393.163 201.58 393.338 201.735C393.513 201.889 393.739 201.974 393.972 201.972H399.493C399.701 201.972 399.904 201.905 400.07 201.779C400.236 201.654 400.356 201.477 400.412 201.277L404.603 186.22C404.662 185.989 404.632 185.744 404.519 185.533C404.405 185.323 404.217 185.163 403.99 185.084L391.934 180.958C391.784 180.907 391.622 180.895 391.465 180.923C391.309 180.95 391.161 181.017 391.037 181.116C390.913 181.215 390.815 181.344 390.754 181.491C390.692 181.637 390.668 181.797 390.685 181.955Z" fill="#192B59"/>
<path d="M406.921 168.744C404.306 161.992 400.384 155.82 395.378 150.581C395.219 150.415 395.06 150.252 394.897 150.089L363.788 142.082C363.788 142.082 358.613 140.6 358.343 143.067C358.072 145.533 366.048 154.498 367.895 155.276C369.742 156.055 402.312 168.057 404.652 168.466C405.428 168.605 406.22 168.693 406.921 168.744Z" fill="white"/>
<path d="M405.696 166.814C403.355 166.417 370.777 154.395 368.939 153.62C367.195 152.881 359.912 144.775 359.418 141.84C359.133 141.911 358.877 142.068 358.683 142.289C358.49 142.509 358.369 142.784 358.335 143.075C358.053 145.546 366.041 154.506 367.888 155.284C369.735 156.063 402.305 168.065 404.645 168.475C405.441 168.614 406.237 168.701 406.929 168.753C406.687 168.129 406.428 167.505 406.161 166.886L405.696 166.814Z" fill="#D9FCFC"/>
<path d="M321.65 120.269L366.232 46.8672C366.476 46.4664 366.763 46.0935 367.088 45.7551C369.026 43.7374 375.996 36.9616 380.41 39.003L336.098 112.695C335.56 113.591 334.762 114.303 333.81 114.737L321.65 120.269Z" fill="url(#paint13_linear_1_1804)"/>
<defs>
<linearGradient id="paint0_linear_1_1804" x1="242.998" y1="242.973" x2="242.998" y2="209.344" gradientUnits="userSpaceOnUse">
<stop stop-color="white"/>
<stop offset="1" stop-color="#E6E7E8"/>
</linearGradient>
<linearGradient id="paint1_linear_1_1804" x1="344.476" y1="-11.9588" x2="349.648" y2="138.567" gradientUnits="userSpaceOnUse">
<stop stop-color="white"/>
<stop offset="1" stop-color="#BCBEC0"/>
</linearGradient>
<linearGradient id="paint2_linear_1_1804" x1="418.433" y1="225.001" x2="443.999" y2="231.497" gradientUnits="userSpaceOnUse">
<stop offset="0.03" stop-color="#4E9CFF"/>
<stop offset="1" stop-color="#176AD4"/>
</linearGradient>
<linearGradient id="paint3_linear_1_1804" x1="462.125" y1="128.745" x2="436.749" y2="185.609" gradientUnits="userSpaceOnUse">
<stop stop-color="#1D0633"/>
<stop offset="1" stop-color="#192B59"/>
</linearGradient>
<linearGradient id="paint4_linear_1_1804" x1="435.993" y1="229.919" x2="466.019" y2="229.919" gradientUnits="userSpaceOnUse">
<stop offset="0.03" stop-color="#4E9CFF"/>
<stop offset="1" stop-color="#176AD4"/>
</linearGradient>
<linearGradient id="paint5_linear_1_1804" x1="433.318" y1="77.2545" x2="416.046" y2="115.963" gradientUnits="userSpaceOnUse">
<stop stop-color="#4E9CFF"/>
<stop offset="0.75" stop-color="#176AD4"/>
</linearGradient>
<linearGradient id="paint6_linear_1_1804" x1="276.157" y1="44.1143" x2="149.695" y2="276.811" gradientUnits="userSpaceOnUse">
<stop stop-color="#E6FBFC"/>
<stop offset="0.26" stop-color="#DAF2F7"/>
<stop offset="0.73" stop-color="#B9DAE9"/>
<stop offset="1" stop-color="#A4CBE0"/>
</linearGradient>
<linearGradient id="paint7_linear_1_1804" x1="40.5255" y1="202.818" x2="84.2477" y2="202.818" gradientUnits="userSpaceOnUse">
<stop stop-color="#E6FBFC"/>
<stop offset="0.26" stop-color="#DAF2F7"/>
<stop offset="0.73" stop-color="#B9DAE9"/>
<stop offset="1" stop-color="#A4CBE0"/>
</linearGradient>
<linearGradient id="paint8_linear_1_1804" x1="313.645" y1="202.818" x2="357.367" y2="202.818" gradientUnits="userSpaceOnUse">
<stop stop-color="#E6FBFC"/>
<stop offset="0.26" stop-color="#DAF2F7"/>
<stop offset="0.73" stop-color="#B9DAE9"/>
<stop offset="1" stop-color="#A4CBE0"/>
</linearGradient>
<linearGradient id="paint9_linear_1_1804" x1="14.4002" y1="126.426" x2="41.2552" y2="147.428" gradientUnits="userSpaceOnUse">
<stop stop-color="#E64D4E"/>
<stop offset="0.96" stop-color="#952E2E"/>
</linearGradient>
<linearGradient id="paint10_linear_1_1804" x1="189.049" y1="133.763" x2="207.076" y2="133.171" gradientUnits="userSpaceOnUse">
<stop stop-color="#E6FBFC"/>
<stop offset="0.26" stop-color="#DAF2F7"/>
<stop offset="0.73" stop-color="#B9DAE9"/>
<stop offset="1" stop-color="#A4CBE0"/>
</linearGradient>
<linearGradient id="paint11_linear_1_1804" x1="84.3094" y1="123.84" x2="102.336" y2="123.248" gradientUnits="userSpaceOnUse">
<stop stop-color="#E6FBFC"/>
<stop offset="0.26" stop-color="#DAF2F7"/>
<stop offset="0.73" stop-color="#B9DAE9"/>
<stop offset="1" stop-color="#A4CBE0"/>
</linearGradient>
<linearGradient id="paint12_linear_1_1804" x1="280.702" y1="118.045" x2="305.162" y2="129.113" gradientUnits="userSpaceOnUse">
<stop stop-color="#E6FBFC"/>
<stop offset="0.26" stop-color="#DAF2F7"/>
<stop offset="0.73" stop-color="#B9DAE9"/>
<stop offset="1" stop-color="#A4CBE0"/>
</linearGradient>
<linearGradient id="paint13_linear_1_1804" x1="336.76" y1="71.3788" x2="437.261" y2="130.026" gradientUnits="userSpaceOnUse">
<stop stop-color="#E6FBFC"/>
<stop offset="0.06" stop-color="#DAF2F7"/>
<stop offset="0.16" stop-color="#B9DAE9"/>
<stop offset="0.22" stop-color="#A4CBE0"/>
</linearGradient>
</defs>
</svg>
