<svg width="25" height="18" viewBox="0 0 25 18" fill="none" xmlns="http://www.w3.org/2000/svg">
<path d="M22.188 9.15888L19.5171 8.70485C19.4505 8.6681 19.3773 8.64232 19.2998 8.62873L17.263 5.96135C16.6942 5.21651 15.8816 4.78493 14.959 4.73233V2.63257C14.959 2.24426 14.6442 1.92944 14.2559 1.92944H11.7247V1.08569C11.7247 0.697381 11.4098 0.382568 11.0215 0.382568H5.44336C5.05505 0.382568 4.74023 0.697381 4.74023 1.08569V4.72676H4.06055C3.17934 4.72676 2.42873 5.23512 2.10178 6.05341L0.384187 10.3517C0.351 10.4347 0.333984 10.5233 0.333984 10.6126V14.8518C0.333984 15.2401 0.648797 15.5549 1.03711 15.5549H3.2078C3.46608 16.7328 4.51711 17.6174 5.77148 17.6174C7.02586 17.6174 8.07689 16.7328 8.33517 15.5549H16.3328C16.5911 16.7328 17.6422 17.6174 18.8965 17.6174C20.1509 17.6174 21.2019 16.7328 21.4602 15.5549H23.6309C24.0192 15.5549 24.334 15.2401 24.334 14.8518V11.7005C24.334 10.4392 23.4315 9.37029 22.188 9.15888ZM16.1453 6.8148L17.5218 8.61743H11.6681V6.14815L14.7668 6.13301C15.336 6.13301 15.7998 6.36236 16.1453 6.8148ZM6.37012 6.14819H10.2618V8.61743H5.51597L6.37012 6.14819ZM13.5527 3.33569V4.72676H11.7246V3.33569H13.5527ZM6.14648 1.78882H10.3184V4.72676H6.14648V1.78882ZM5.77148 16.2111C5.09944 16.2111 4.55273 15.6644 4.55273 14.9924C4.55273 14.3204 5.09944 13.7736 5.77148 13.7736C6.44353 13.7736 6.99023 14.3204 6.99023 14.9924C6.99023 15.6644 6.44353 16.2111 5.77148 16.2111ZM18.8965 16.2111C18.2244 16.2111 17.6777 15.6644 17.6777 14.9924C17.6777 14.3204 18.2244 13.7736 18.8965 13.7736C19.5685 13.7736 20.1152 14.3204 20.1152 14.9924C20.1152 15.6644 19.5685 16.2111 18.8965 16.2111ZM21.3816 14.1487C21.0293 13.114 20.0488 12.3674 18.8965 12.3674C17.7442 12.3674 16.7637 13.114 16.4114 14.1487H8.25656C7.9043 13.114 6.92377 12.3674 5.77148 12.3674C4.6192 12.3674 3.63867 13.114 3.28641 14.1487H1.74023V12.0862H1.78706C2.17537 12.0862 2.49019 11.7714 2.49019 11.3831C2.49019 10.9947 2.17537 10.6799 1.78706 10.6799H1.76737L3.40758 6.57527C3.51825 6.29838 3.76233 6.13301 4.06055 6.13301H4.88737L3.86428 9.09072C3.78994 9.30565 3.82416 9.54321 3.95606 9.72846C4.08797 9.91366 4.30134 10.0237 4.52878 10.0237H18.8843L21.9523 10.5453C22.4007 10.6215 22.7425 10.9282 22.8713 11.3361H22.8574C22.4691 11.3361 22.1543 11.6509 22.1543 12.0393C22.1543 12.4276 22.4691 12.7424 22.8574 12.7424H22.9277V14.1487H21.3816Z" fill="#101010"/>
</svg>
