<svg width="19" height="18" viewBox="0 0 19 18" fill="none" xmlns="http://www.w3.org/2000/svg">
<path fill-rule="evenodd" clip-rule="evenodd" d="M4.4043 3.28919C4.4043 1.51025 5.83633 0.0625 7.6218 0.0625H11.6918C13.4773 0.0625 14.9093 1.51024 14.9093 3.28919V14.7108C14.9093 16.4914 13.4665 17.9375 11.6918 17.9375H7.6218C5.83633 17.9375 4.4043 16.4897 4.4043 14.7108V3.28919ZM7.6218 1.4375C6.60226 1.4375 5.7793 2.26312 5.7793 3.28919V14.7108C5.7793 15.7369 6.60226 16.5625 7.6218 16.5625H11.6918C12.7038 16.5625 13.5343 15.7352 13.5343 14.7108V3.28919C13.5343 2.26313 12.7114 1.4375 11.6918 1.4375H7.6218Z" fill="#101010"/>
<path fill-rule="evenodd" clip-rule="evenodd" d="M13.5801 2.8125H15.3859C16.2487 2.8125 17.0555 3.15223 17.6596 3.75635C18.2656 4.36234 18.6034 5.1791 18.6034 6.03919V11.9608C18.6034 12.8093 18.2674 13.6345 17.662 14.2412C17.0626 14.8511 16.2437 15.1875 15.3859 15.1875H13.5801V2.8125ZM14.9551 4.1875V13.8125H15.3859C15.8837 13.8125 16.3472 13.618 16.6826 13.2761L16.6873 13.2714C17.0337 12.925 17.2284 12.4495 17.2284 11.9608V6.03919C17.2284 5.54259 17.0346 5.07597 16.6873 4.72865C16.3381 4.37945 15.8798 4.1875 15.3859 4.1875H14.9551Z" fill="#101010"/>
<path fill-rule="evenodd" clip-rule="evenodd" d="M3.94603 4.1875C3.45209 4.1875 2.99385 4.37945 2.64465 4.72865C2.29825 5.07504 2.10352 5.55046 2.10352 6.03919V12.3825C2.10352 12.763 2.25366 13.1279 2.51633 13.3905C2.79198 13.6662 3.14926 13.8125 3.52434 13.8125H4.37689V4.1875H3.94603ZM1.67238 3.75635C2.27651 3.15223 3.08329 2.8125 3.94603 2.8125H5.75189V15.1875H3.52434C2.78108 15.1875 2.07508 14.8938 1.54406 14.3628C1.0184 13.8371 0.728516 13.1203 0.728516 12.3825V6.03919C0.728516 5.1896 1.06544 4.36328 1.67238 3.75635Z" fill="#101010"/>
</svg>
