<svg width="15" height="16" viewBox="0 0 15 16" fill="none" xmlns="http://www.w3.org/2000/svg">
<path d="M9.33398 0.500122H1.33398C0.782484 0.500122 0.333984 0.948622 0.333984 1.50012V14.5001C0.333984 15.0516 0.782484 15.5001 1.33398 15.5001H9.33398C9.88548 15.5001 10.334 15.0516 10.334 14.5001V1.50012C10.334 0.948622 9.88548 0.500122 9.33398 0.500122ZM8.33398 5.50012C8.33398 6.05162 7.88548 6.50012 7.33398 6.50012H3.33398C2.78248 6.50012 2.33398 6.05162 2.33398 5.50012V3.50012C2.33398 2.94862 2.78248 2.50012 3.33398 2.50012H7.33398C7.88548 2.50012 8.33398 2.94862 8.33398 3.50012V5.50012Z" fill="#101010"/>
<path d="M11.834 6.5H9.83398C9.55798 6.5 9.33398 6.276 9.33398 6C9.33398 5.724 9.55798 5.5 9.83398 5.5H11.834C12.11 5.5 12.334 5.724 12.334 6C12.334 6.276 12.11 6.5 11.834 6.5Z" fill="#101010"/>
<path d="M11.834 14.5C11.558 14.5 11.334 14.276 11.334 14V6C11.334 5.724 11.558 5.5 11.834 5.5C12.11 5.5 12.334 5.724 12.334 6V14C12.334 14.276 12.11 14.5 11.834 14.5Z" fill="#101010"/>
<path d="M13.834 14.5H11.834C11.558 14.5 11.334 14.276 11.334 14C11.334 13.724 11.558 13.5 11.834 13.5H13.834C14.11 13.5 14.334 13.724 14.334 14C14.334 14.276 14.11 14.5 13.834 14.5Z" fill="#101010"/>
<path d="M14.2956 2.809C14.2701 2.748 14.2336 2.6925 14.1876 2.6465L12.1876 0.646503C11.9921 0.451003 11.6761 0.451003 11.4806 0.646503C11.2851 0.842003 11.2851 1.158 11.4806 1.3535L11.8276 1.7005C11.5171 2.0615 11.3341 2.5185 11.3341 3C11.3341 4.103 12.2311 5 13.3341 5V14C13.3341 14.276 13.5581 14.5 13.8341 14.5C14.1101 14.5 14.3341 14.276 14.3341 14V3C14.3341 2.935 14.3206 2.87 14.2956 2.809Z" fill="#101010"/>
</svg>
