<svg width="22" height="22" viewBox="0 0 22 22" fill="none" xmlns="http://www.w3.org/2000/svg">
<path d="M14 10.5001L12.7667 10.0667C12.6667 9.73341 12.5333 9.40007 12.3333 9.06674L12.9 7.90007C12.9667 7.76674 12.9333 7.60007 12.8333 7.53341L11.4 6.10007C11.3 6.00007 11.1333 5.96674 11.0333 6.03341L9.86667 6.60007C9.53333 6.43341 9.2 6.30007 8.86667 6.16674L8.43333 4.93341C8.4 4.80007 8.26667 4.70007 8.13333 4.70007H6.1C5.96667 4.70007 5.83333 4.80007 5.76667 4.93341L5.33333 6.16674C5 6.26674 4.66667 6.40007 4.33333 6.60007L3.2 6.00007C3.06667 5.93341 2.93333 5.96674 2.8 6.06674L1.36667 7.50007C1.26667 7.60007 1.23333 7.76674 1.3 7.86674L1.86667 9.03341C1.7 9.36674 1.56667 9.70007 1.46667 10.0334L0.233333 10.4667C0.1 10.5334 0 10.6667 0 10.8001V12.8334C0 12.9667 0.1 13.1001 0.233333 13.1667L1.46667 13.6001C1.56667 13.9334 1.7 14.2667 1.9 14.6001L1.33333 15.7667C1.26667 15.9001 1.3 16.0667 1.4 16.1667L2.83333 17.6001C2.93333 17.7001 3.1 17.7334 3.23333 17.6667L4.4 17.1001C4.73333 17.2667 5.06667 17.4001 5.4 17.5334L5.83333 18.7667C5.86667 18.9001 6 19.0001 6.13333 19.0001H8.16667C8.3 19.0001 8.43333 18.9001 8.46667 18.7667L8.9 17.5334C9.23333 17.4334 9.56667 17.3001 9.9 17.1001L11.0667 17.6667C11.2 17.7334 11.3333 17.7001 11.4333 17.6001L12.8667 16.1667C12.9667 16.0667 13 15.9001 12.9333 15.7667L12.3333 14.5667C12.5 14.2334 12.6333 13.9001 12.7667 13.5667L14 13.1334C14.1333 13.1001 14.2333 12.9667 14.2333 12.8001V10.7667C14.2333 10.6667 14.1333 10.5334 14 10.5001ZM7.1 14.6667C5.53333 14.6667 4.26667 13.4001 4.26667 11.8334C4.26667 10.2667 5.53333 9.00007 7.1 9.00007C8.66667 9.00007 9.93333 10.2667 9.93333 11.8334C9.93333 13.3667 8.66667 14.6667 7.1 14.6667Z" fill="#101010"/>
<path d="M21.0992 3.86668L20.4326 3.63335C20.3659 3.46668 20.2992 3.30002 20.2326 3.16668L20.5326 2.53335C20.5992 2.40002 20.5659 2.26668 20.4659 2.13335L19.6659 1.30002C19.5659 1.20002 19.3992 1.16668 19.2992 1.23335L18.6659 1.53335C18.4992 1.46668 18.3659 1.40002 18.1992 1.33335L17.9659 0.666683C17.9326 0.53335 17.7992 0.43335 17.6659 0.43335H16.4659C16.3326 0.43335 16.1992 0.53335 16.1326 0.666683L15.8992 1.33335C15.7326 1.40002 15.5659 1.46668 15.4326 1.53335L14.7992 1.23335C14.6659 1.16668 14.4992 1.20002 14.3992 1.30002L13.5659 2.13335C13.4659 2.23335 13.4326 2.40002 13.4992 2.53335L13.7992 3.16668C13.7326 3.33335 13.6659 3.46668 13.5992 3.63335L12.9326 3.86668C12.7992 3.90002 12.6992 4.03335 12.6992 4.16668V5.36668C12.6992 5.50002 12.7992 5.63335 12.9326 5.66668L13.5992 5.90002C13.6659 6.06668 13.7326 6.23335 13.7992 6.40002L13.4992 7.00002C13.4326 7.13335 13.4659 7.30002 13.5659 7.40002L14.3992 8.23335C14.4992 8.33335 14.6659 8.36668 14.7992 8.30002L15.4326 8.00002C15.5992 8.06668 15.7659 8.13335 15.8992 8.20002L16.1326 8.86668C16.1659 9.00002 16.2992 9.10002 16.4659 9.10002H17.6659C17.7992 9.10002 17.9326 9.00002 17.9659 8.86668L18.1992 8.20002C18.3659 8.13335 18.5326 8.06668 18.6659 8.00002L19.2992 8.30002C19.4326 8.36668 19.5659 8.33335 19.6992 8.23335L20.5326 7.40002C20.6326 7.30002 20.6659 7.13335 20.5992 7.00002L20.2992 6.36668C20.3659 6.20002 20.4326 6.03335 20.4992 5.86668L21.1659 5.63335C21.2992 5.60002 21.3992 5.46668 21.3992 5.33335V4.13335C21.3326 4.03335 21.2326 3.90002 21.0992 3.86668ZM17.0326 6.43335C16.0992 6.43335 15.3659 5.70002 15.3659 4.76668C15.3659 3.86668 16.0992 3.10002 17.0326 3.10002C17.9326 3.10002 18.6992 3.83335 18.6992 4.76668C18.6992 5.70002 17.9326 6.43335 17.0326 6.43335Z" fill="#101010"/>
<path d="M21.0995 14.7334L20.1662 14.4001C20.0995 14.1334 19.9995 13.9001 19.8662 13.6667L20.2995 12.7667C20.3662 12.6334 20.3329 12.5001 20.2329 12.4001L19.0995 11.2667C18.9995 11.1667 18.8329 11.1334 18.6995 11.2001L17.8329 11.6667C17.5995 11.5334 17.3329 11.4334 17.0995 11.3667L16.7995 10.4334C16.7662 10.3001 16.6329 10.2001 16.4662 10.2001H14.8662C14.7995 10.2001 14.7662 10.2001 14.6995 10.2334C14.7995 10.4001 14.8662 10.6001 14.8662 10.8001V12.8334C14.8662 13.2667 14.5995 13.6334 14.1995 13.7667L13.2662 14.1001C13.1995 14.2667 13.1329 14.4334 13.0662 14.5667L13.4995 15.4334C13.6995 15.8334 13.6329 16.2667 13.2995 16.6001L11.8662 18.0334C11.6995 18.2001 11.4995 18.3001 11.2995 18.3334L10.9995 18.9334C10.9329 19.0667 10.9662 19.2001 11.0662 19.3001L12.1995 20.4334C12.2995 20.5334 12.4662 20.5667 12.5995 20.5001L13.4995 20.0667C13.7329 20.2001 13.9995 20.3001 14.2329 20.3667L14.5662 21.3001C14.5995 21.4334 14.7329 21.5334 14.8995 21.5334H16.4995C16.6329 21.5334 16.7662 21.4334 16.8329 21.3001L17.1329 20.3667C17.3995 20.2667 17.6329 20.1667 17.8662 20.0667L18.7662 20.5001C18.8995 20.5667 19.0329 20.5334 19.1662 20.4334L20.2995 19.3001C20.3995 19.2001 20.4329 19.0334 20.3662 18.9334L19.9329 18.0334C20.0662 17.8001 20.1662 17.5334 20.2329 17.3001L21.1662 16.9667C21.2995 16.9334 21.3995 16.8001 21.3995 16.6334V15.0334C21.3329 14.9001 21.2329 14.8001 21.0995 14.7334ZM15.9995 18.1001C14.7662 18.1001 13.7662 17.1001 13.7662 15.8667C13.7662 14.6334 14.7662 13.6334 15.9995 13.6334C17.2329 13.6334 18.2329 14.6334 18.2329 15.8667C18.2329 17.1001 17.2329 18.1001 15.9995 18.1001Z" fill="#101010"/>
</svg>
