<svg width="24" height="16" viewBox="0 0 24 16" fill="none" xmlns="http://www.w3.org/2000/svg">
<path d="M9.53037 3.06335L15.469 9.00248L10.2609 14.2106C9.03316 15.4903 6.82511 15.4901 5.59754 14.2105L5.30805 13.9211L3.31771 15.9119L0 12.5942L9.53037 3.06335ZM6.59318 13.2154C7.29604 13.9486 8.56223 13.9489 9.26527 13.2154L12.4891 9.99155L8.39491 8.84389L5.30805 11.9307L6.59318 13.2154Z" fill="#101010"/>
<path d="M12.3516 3.89287L16.1563 0.0881348L22.4056 0.0904809V3.32702L17.5273 3.29558L14.6666 6.2079L12.3516 3.89287Z" fill="#101010"/>
<path d="M21.3917 8.40479C22.6402 9.61227 23.9994 11.3507 23.9994 12.6699C23.9994 14.1069 22.8298 15.2764 21.3917 15.2764C19.9547 15.2764 18.7852 14.1069 18.7852 12.6699C18.7852 11.3507 20.1433 9.61222 21.3917 8.40479Z" fill="#101010"/>
</svg>
