<svg width="24" height="24" viewBox="0 0 24 24" fill="none" xmlns="http://www.w3.org/2000/svg">
<path d="M20.3775 17.854C20.0945 17.3708 19.6428 17.0093 19.1094 16.8389L19.0445 16.8194C18.9666 16.7945 18.8861 16.7782 18.8045 16.7708C18.3881 16.8738 17.9962 17.0584 17.6516 17.3139C17.307 17.5695 17.0165 17.8908 16.797 18.2594L16.4856 22.7026C16.437 22.7026 16.4597 22.7026 16.4856 22.7026L16.4597 23.3513H16.7062C19.9072 23.3513 20.5072 20.6399 20.5591 20.3643C20.8251 19.3556 20.757 18.5091 20.3775 17.854Z" fill="#101010"/>
<path d="M7.51423 22.7027L7.18991 18.2692C6.91423 18.0163 6.30126 16.8422 5.18234 16.7773C5.10115 16.787 5.02088 16.8033 4.94234 16.826H4.89693C4.3516 16.9916 3.8885 17.3563 3.59964 17.8476C3.21369 18.4963 3.15207 19.3492 3.41801 20.3579C3.46991 20.6303 4.06666 23.3449 7.27099 23.3449H7.51747L7.49153 22.6963C7.54018 22.7028 7.55964 22.7027 7.51423 22.7027Z" fill="#101010"/>
<path d="M9.51493 5.46157H10.1636V6.51886H9.06087V11.3253H14.9409V6.51886H13.8382V5.46157H14.4868C14.6513 5.46162 14.8139 5.42702 14.9641 5.36004C15.1143 5.29305 15.2487 5.19517 15.3585 5.07278C15.4684 4.95039 15.5512 4.80623 15.6016 4.6497C15.652 4.49316 15.6689 4.32776 15.6511 4.16427L15.3722 1.70265C15.3439 1.4125 15.208 1.14345 14.9914 0.948401C14.7747 0.753348 14.4929 0.646403 14.2014 0.648593H9.79709C9.50664 0.647137 9.22607 0.753995 9.01018 0.948299C8.79428 1.1426 8.65856 1.4104 8.62952 1.6994L8.3506 4.16751C8.33284 4.331 8.34971 4.49641 8.40013 4.65294C8.45055 4.80948 8.53338 4.95363 8.64322 5.07603C8.75307 5.19842 8.88746 5.29629 9.03766 5.36328C9.18785 5.43027 9.35047 5.46486 9.51493 5.46481V5.46157ZM13.1895 6.51886H10.809V5.46157H13.1895V6.51886Z" fill="#101010"/>
<path d="M18.664 16.1384L18.7613 16.1157H18.8586H18.9267C18.6673 14.5265 18.33 11.9449 18.4824 9.8984C18.5542 9.48727 18.5421 9.06587 18.4468 8.65955C18.3515 8.25323 18.1749 7.87039 17.9278 7.53407C17.4251 6.91461 16.6305 6.5611 15.5894 6.51245V17.7957H8.4089V6.53191C7.36133 6.59029 6.57322 6.93407 6.07052 7.55353C5.82284 7.88961 5.64573 8.27233 5.54986 8.67866C5.45399 9.08499 5.44135 9.50651 5.51268 9.91786C5.66512 11.9643 5.32782 14.546 5.06836 16.1352C5.08346 16.1367 5.09867 16.1367 5.11376 16.1352H5.17214H5.23052C6.40133 16.2033 7.10836 17.1081 7.50079 17.6076C7.54809 17.6751 7.59898 17.7401 7.65322 17.8022L7.82512 17.9708L7.86079 18.2303V18.4573L8.20458 23.3222H8.18512V23.3514H15.8067L15.8586 22.0541H15.8911L16.1732 18.0584L16.2575 17.9222C16.5193 17.4792 16.867 17.0932 17.2803 16.7868C17.6937 16.4805 18.1641 16.26 18.664 16.1384Z" fill="#101010"/>
<path d="M9.05859 11.974H14.9418V17.147H9.05859V11.974Z" fill="#101010"/>
</svg>
