<svg width="20" height="12" viewBox="0 0 20 12" fill="none" xmlns="http://www.w3.org/2000/svg">
<path d="M19.9436 8.19999C19.5476 6.17599 18.5356 4.28399 17.0396 2.87599L16.8636 3.05199L14.3556 5.55999C15.1476 6.35199 15.6756 7.36399 15.9396 8.46399C15.9836 8.72799 16.2476 8.94799 16.5556 8.94799H19.3276C19.5036 8.94799 19.7236 8.85999 19.8116 8.72799C19.9436 8.59599 19.9876 8.41999 19.9436 8.19999ZM10.4396 0.0599914V3.79999C11.6276 3.88799 12.7716 4.32799 13.6956 5.03199L16.3796 2.34799C14.7076 0.939992 12.5956 0.147991 10.4396 0.0599914ZM3.13556 3.09599L2.95956 2.87599C1.46356 4.32799 0.451562 6.21999 0.0555625 8.19999C0.0115625 8.37599 0.0555625 8.59599 0.187562 8.72799C0.319562 8.85999 0.495562 8.94799 0.671562 8.94799H3.44356C3.75156 8.94799 4.01556 8.72799 4.05956 8.46399C4.32356 7.36399 4.85156 6.35199 5.64356 5.55999L3.13556 3.09599ZM3.61956 2.30399L6.30356 4.98799C6.30356 4.98799 6.34756 4.94399 6.39156 4.94399C6.39156 4.67999 6.43556 4.45999 6.61156 4.28399C6.83156 4.01999 7.13956 3.84399 7.49156 3.84399C7.71156 3.84399 7.93156 3.93199 8.15156 4.06399C8.63556 3.88799 9.11956 3.79999 9.60356 3.75599V0.0159912C7.40356 0.147991 5.29156 0.939992 3.61956 2.30399Z" fill="#101010"/>
<path d="M10.0005 6.92405C9.86847 6.92405 9.69247 6.92405 9.56047 6.96805C8.94447 6.30805 7.97647 5.20805 7.62447 4.81205C7.49247 4.68005 7.22847 4.81205 7.27247 4.98805C7.36047 5.29605 7.22847 4.81205 8.10847 7.80405C7.71247 8.24405 7.49247 8.81605 7.49247 9.43205C7.49247 10.796 8.63647 11.94 10.0005 11.94C11.4085 11.94 12.5085 10.796 12.5085 9.43205C12.5085 8.02405 11.3645 6.92405 10.0005 6.92405ZM10.0005 10.532C9.42847 10.532 8.98847 10.092 8.98847 9.52005C8.98847 8.94805 9.47247 8.50805 10.0005 8.50805C10.5725 8.50805 11.0125 8.94805 11.0125 9.52005C11.0125 10.048 10.5725 10.532 10.0005 10.532Z" fill="#101010"/>
</svg>
