<svg width="38" height="38" viewBox="0 0 38 38" fill="none" xmlns="http://www.w3.org/2000/svg">
<path d="M16.8296 10.0071L12.7595 5.93695C12.0063 5.18378 10.7807 5.18378 10.0276 5.93695L8.41693 7.54758C7.66376 8.30075 7.66376 9.52633 8.41693 10.2795L12.487 14.3496C12.8637 14.7263 13.3583 14.9145 13.853 14.9145C14.3476 14.9145 14.8424 14.7261 15.219 14.3496L16.8296 12.7391C17.5828 11.9859 17.5828 10.7603 16.8296 10.0071ZM16.0648 11.9742L14.4541 13.5848C14.2935 13.7453 14.0801 13.8338 13.853 13.8338C13.6259 13.8338 13.4125 13.7453 13.2519 13.5848L9.18176 9.51468C8.8503 9.18322 8.8503 8.64387 9.18176 8.31241L10.7924 6.70185C10.9581 6.53612 11.1758 6.45322 11.3936 6.45322C11.6112 6.45322 11.8289 6.53612 11.9947 6.70178L16.0648 10.772C16.2253 10.9326 16.3138 11.146 16.3138 11.3731C16.3138 11.6002 16.2253 11.8136 16.0648 11.9742Z" fill="black"/>
<path d="M11.8972 14.9393L7.82704 10.8691C7.07387 10.1159 5.84836 10.1159 5.09519 10.8691L3.48456 12.4797C2.73138 13.2329 2.73138 14.4585 3.48456 15.2116L7.55466 19.2818C7.93124 19.6584 8.42591 19.8467 8.92058 19.8467C9.41525 19.8467 9.91 19.6584 10.2866 19.2818L11.8972 17.6712C12.6504 16.918 12.6504 15.6924 11.8972 14.9393ZM11.1324 16.9064L9.52176 18.5169C9.1903 18.8484 8.65095 18.8483 8.31948 18.5169L4.24939 14.4467C4.08885 14.2861 4.00038 14.0727 4.00038 13.8456C4.00038 13.6186 4.08878 13.4051 4.24939 13.2445L5.86001 11.6339C6.02574 11.4682 6.24343 11.3853 6.46111 11.3853C6.6788 11.3853 6.89648 11.4682 7.06221 11.6339L11.1324 15.7041C11.4638 16.0355 11.4638 16.5749 11.1324 16.9064Z" fill="black"/>
<path d="M36.8903 12.5555L31.7681 7.43337C30.9986 6.66387 29.9342 6.26235 28.8484 6.33115C28.5965 6.34718 28.3493 6.38919 28.1093 6.45346C27.2318 5.784 26.1707 5.17222 25.009 4.67413C23.2817 3.9335 21.5251 3.52559 20.0624 3.52559C20.0622 3.52559 20.062 3.52559 20.0618 3.52559C19.8598 3.52559 19.6662 3.53405 19.4806 3.54971C19.0502 3.05386 18.4375 2.72061 17.7461 2.655L12.805 2.18601C11.5376 2.06571 10.2948 2.51295 9.39485 3.413L4.22483 8.58303C4.0136 8.79418 4.0136 9.13663 4.22483 9.34785C4.43598 9.55901 4.77843 9.55901 4.98965 9.34785L10.1597 4.17783C10.8308 3.50667 11.7578 3.17298 12.7028 3.26278L17.6439 3.73177C18.38 3.80169 18.965 4.38668 19.0349 5.12279L19.2997 7.91298C19.2947 7.90852 19.2897 7.90407 19.2846 7.89954C19.2397 7.85939 19.1953 7.81917 19.152 7.77872C19.1138 7.74324 19.0763 7.70761 19.0395 7.67191C19.0222 7.65507 19.005 7.63829 18.9879 7.62137C18.9359 7.57001 18.8849 7.51858 18.8357 7.46692C18.7926 7.42165 18.7514 7.3766 18.7111 7.33162C18.7015 7.32086 18.6919 7.31017 18.6824 7.29948C18.6443 7.25629 18.6071 7.21324 18.5714 7.17042C18.5634 7.16084 18.5559 7.15134 18.5481 7.14177C18.52 7.10755 18.4928 7.07356 18.4665 7.03964C18.4555 7.02554 18.4444 7.01137 18.4337 6.99734C18.405 6.95963 18.3774 6.92208 18.3508 6.88482C18.3377 6.86634 18.3251 6.84808 18.3125 6.82975C18.3028 6.81557 18.2934 6.80155 18.284 6.78752C18.5928 6.14426 18.4828 5.34871 17.9504 4.81626C17.2765 4.14235 16.1799 4.14228 15.5058 4.81626C14.8318 5.49025 14.8318 6.58683 15.5058 7.26082C15.8428 7.59777 16.2855 7.76625 16.7281 7.76625C16.9987 7.76625 17.2692 7.70249 17.5157 7.57647C17.6706 7.78703 17.8492 7.99944 18.052 8.21253C18.4447 8.62533 18.914 9.02745 19.4416 9.40879L19.5038 10.0638C19.5935 11.0087 19.26 11.9357 18.5887 12.607L9.85612 21.3396C9.63265 21.563 9.33555 21.6861 9.01952 21.6861C8.7035 21.6861 8.4064 21.563 8.18293 21.3396L1.42699 14.5836C1.20352 14.3602 1.08046 14.0631 1.08046 13.747C1.08046 13.431 1.20352 13.1339 1.42699 12.9104L2.49137 11.8461C2.70259 11.6349 2.70259 11.2925 2.49137 11.0812C2.28021 10.8701 1.93777 10.8701 1.72654 11.0812L0.662238 12.1455C-0.220746 13.0285 -0.220746 14.4653 0.662238 15.3483L7.41817 22.1043C7.8459 22.532 8.41464 22.7676 9.0196 22.7676C9.62456 22.7676 10.1933 22.5321 10.621 22.1043L19.3536 13.3716C20.2083 12.5169 20.6537 11.3528 20.5935 10.1526C21.1267 10.4613 21.697 10.7481 22.2946 11.0043C22.6306 11.1485 22.9677 11.2796 23.3036 11.3979L20.2639 15.327C19.2246 16.6704 19.2208 18.5259 20.1855 19.8681L17.6894 22.3642C17.4086 22.6451 17.2912 23.0596 17.3832 23.4461C17.3888 23.4698 17.3816 23.4953 17.3643 23.5127L15.5631 25.3139C15.4913 25.3858 15.4309 25.4679 15.3834 25.558L14.3693 27.4897L12.5492 28.4306C12.3566 28.5302 12.1987 28.6926 12.1044 28.8879L11.3907 30.368L9.2237 31.7254C8.99622 31.8678 8.8463 32.1022 8.8123 32.3684L8.49754 34.8278C8.46221 35.1039 8.55484 35.3752 8.75167 35.572C8.92096 35.7413 9.14533 35.8334 9.38045 35.8334C9.41867 35.8334 9.45719 35.831 9.49586 35.8261L11.9554 35.5113C12.2214 35.4773 12.4557 35.3274 12.5983 35.1L13.9557 32.933L15.4357 32.2192C15.631 32.125 15.7935 31.9669 15.8931 31.7743L16.8339 29.9544L18.7657 28.9402C18.8559 28.8928 18.9381 28.8324 19.0098 28.7606L20.8109 26.9594C20.8285 26.9418 20.8535 26.9347 20.8776 26.9406C21.2642 27.0325 21.6787 26.9151 21.9595 26.6343L24.4553 24.1384C25.1124 24.6108 25.8921 24.8514 26.675 24.8513C27.4914 24.8513 28.3108 24.5904 28.9965 24.0599L31.8894 21.8218C32.1256 21.639 32.169 21.2993 31.9862 21.0631C31.8035 20.8269 31.4638 20.7834 31.2276 20.9663L28.3347 23.2043C27.2728 24.0259 25.7636 23.943 24.797 23.0196C24.7962 23.0189 24.7955 23.018 24.7948 23.0172L24.773 22.9967C24.766 22.9901 24.7589 22.9835 24.752 22.9766L21.3472 19.5717C21.3404 19.565 21.3339 19.558 21.3274 19.5511L21.3061 19.5286C21.3055 19.528 21.3049 19.5275 21.3043 19.5269C20.3809 18.5604 20.2978 17.051 21.1195 15.989L24.4065 11.7402C25.4095 12.0096 26.3768 12.153 27.2411 12.153C27.2413 12.153 27.2416 12.153 27.2417 12.153C27.4987 12.153 27.7428 12.1401 27.9733 12.1149L32.2903 16.4319C32.6032 16.7447 33.0142 16.9012 33.4251 16.9012C33.8361 16.9012 34.247 16.7447 34.5599 16.4319C35.1857 15.8062 35.1857 14.7881 34.5599 14.1624L30.1614 9.76385C29.8583 9.46074 29.4553 9.29382 29.0266 9.29382C28.5979 9.29382 28.1949 9.46074 27.8918 9.76385C27.5887 10.067 27.4217 10.47 27.4217 10.8987C27.4217 10.9557 27.4251 11.0123 27.431 11.0683C27.3688 11.0702 27.3059 11.0714 27.2416 11.0714C27.2413 11.0714 27.2413 11.0714 27.241 11.0714C26.5941 11.0714 25.878 10.9803 25.1282 10.8072L26.9471 8.45611C27.423 7.84106 28.1409 7.46002 28.9169 7.41074C29.6931 7.36116 30.4534 7.64846 31.0032 8.19828L36.1254 13.3204C36.6752 13.8703 36.9623 14.6307 36.9129 15.4067C36.8636 16.1828 36.4826 16.9008 35.8675 17.3765L34.1199 18.7285C33.8836 18.9113 33.8403 19.251 34.023 19.4872C34.2058 19.7234 34.5454 19.7667 34.7817 19.5841L36.5293 18.232C37.3901 17.5661 37.9232 16.5614 37.9923 15.4754C38.0615 14.3892 37.6598 13.325 36.8903 12.5555ZM16.7281 6.68532C16.5554 6.68532 16.3929 6.618 16.2707 6.49584C16.1485 6.3736 16.0812 6.21114 16.0812 6.03835C16.0812 5.86557 16.1485 5.70311 16.2707 5.58094C16.3929 5.45878 16.5554 5.39146 16.7281 5.39146C16.755 5.39146 16.7815 5.39369 16.8078 5.39688C16.7469 5.78341 16.8056 6.2003 16.979 6.63493C16.9006 6.66788 16.8157 6.68532 16.7281 6.68532ZM20.9145 20.6687L23.6549 23.409L21.1946 25.8693C21.1773 25.8866 21.1516 25.8938 21.1279 25.8882C20.7415 25.7963 20.3269 25.9135 20.046 26.1945L18.2527 27.9878L16.3105 29.0075C16.1267 29.1039 15.9791 29.2524 15.8836 29.437L14.9435 31.2558L13.4665 31.9681C13.2952 32.0507 13.1513 32.1796 13.0503 32.3408L11.7291 34.45L9.60148 34.7222L9.87379 32.5947L11.9828 31.2736C12.144 31.1726 12.2729 31.0287 12.3556 30.8573L13.068 29.3803L14.8867 28.4401C15.071 28.3448 15.2196 28.1973 15.3161 28.0134L16.3359 26.071L18.1291 24.2778C18.41 23.9969 18.5274 23.5823 18.4355 23.1959C18.4297 23.1717 18.4368 23.1467 18.4543 23.1292L20.9145 20.6687ZM30.0683 11.2003L33.795 14.927C33.9991 15.1311 33.9991 15.463 33.795 15.6669C33.6962 15.7658 33.5648 15.8202 33.425 15.8202C33.2853 15.8202 33.1539 15.7658 33.0551 15.6669L29.1995 11.8113C29.5578 11.6571 29.8501 11.4525 30.0683 11.2003ZM28.6566 10.5286C28.7555 10.4297 28.8868 10.3753 29.0266 10.3753C29.1192 10.3753 29.2078 10.3997 29.286 10.4445C29.1337 10.6469 28.8656 10.8066 28.5041 10.9139C28.504 10.9088 28.5034 10.9037 28.5034 10.8985C28.5034 10.7588 28.5578 10.6274 28.6566 10.5286ZM26.0917 7.79408L24.0035 10.4932C23.579 10.3551 23.1496 10.1942 22.7207 10.0103C21.9022 9.65928 21.1412 9.25048 20.4709 8.80665L20.1116 5.02044C20.0981 4.87913 20.073 4.7413 20.0382 4.60734C20.0461 4.60734 20.0538 4.60704 20.0618 4.60704C20.0621 4.60704 20.0621 4.60704 20.0624 4.60704C21.3817 4.60704 22.9871 4.98385 24.5827 5.66807C25.4599 6.04422 26.2714 6.48671 26.9756 6.96758C26.6421 7.19172 26.3428 7.46952 26.0917 7.79408Z" fill="black"/>
</svg>
