<svg width="38" height="38" viewBox="0 0 38 38" fill="none" xmlns="http://www.w3.org/2000/svg">
<path d="M27.823 28.6899H3.56241C2.52929 28.6899 1.57335 28.2149 0.949912 27.3837C0.516475 26.8137 0.284912 26.1309 0.284912 25.4124V23.2274C0.284912 22.2715 0.534287 21.3334 1.00335 20.5081C1.47241 19.6887 2.15522 18.9999 2.98054 18.5131C3.69897 18.0974 4.26897 17.4799 4.6371 16.7378L5.04085 15.9481C5.04679 15.9303 5.05273 15.9184 5.05866 15.9006L6.85179 12.3084C7.70679 10.5984 9.42272 9.5415 11.3287 9.5415H16.0371C16.3637 9.5415 16.6308 9.80869 16.6308 10.1353C16.6308 10.4618 16.3637 10.729 16.0371 10.729H11.3287C9.87397 10.729 8.56179 11.5365 7.90866 12.8428L6.13929 16.3934C6.13335 16.4112 6.12148 16.429 6.11554 16.4468L5.69397 17.2721C5.21898 18.2221 4.48866 19.0059 3.57429 19.5403C2.93304 19.9203 2.39272 20.4606 2.0246 21.1018C1.65647 21.7431 1.46054 22.4793 1.46054 23.2274V25.4124C1.46054 25.8696 1.60897 26.3031 1.8821 26.6653C2.27991 27.1996 2.89147 27.5024 3.55054 27.5024H27.8112C28.4643 27.5024 29.0699 27.2056 29.4618 26.6831C29.6993 26.3743 29.8477 26.024 29.8834 25.6559C29.919 25.3293 30.2159 25.0918 30.5365 25.1274C30.863 25.1631 31.1005 25.454 31.0649 25.7806C30.9996 26.3684 30.774 26.9324 30.3999 27.4074C29.8002 28.2209 28.8502 28.6899 27.823 28.6899Z" fill="#101010"/>
<path d="M4.40567 33.4994H3.61599C2.08411 33.4994 0.831299 32.2525 0.831299 30.7147V27.0156C0.831299 26.6891 1.09849 26.4219 1.42505 26.4219C1.75161 26.4219 2.0188 26.6891 2.0188 27.0156V30.7147C2.0188 31.5934 2.73724 32.3119 3.61599 32.3119H4.40567C5.27849 32.3119 5.99099 31.5934 5.99099 30.7147V28.1022C5.99099 27.7756 6.25817 27.5084 6.58474 27.5084C6.9113 27.5084 7.17849 27.7756 7.17849 28.1022V30.7147C7.17849 32.2525 5.93755 33.4994 4.40567 33.4994Z" fill="#101010"/>
<path d="M27.7755 33.4995H26.9859C25.454 33.4995 24.2012 32.2526 24.2012 30.7148V28.1023C24.2012 27.7757 24.4684 27.5085 24.7949 27.5085C25.1215 27.5085 25.3887 27.7757 25.3887 28.1023V30.7148C25.3887 31.5935 26.1071 32.312 26.9859 32.312H27.7755C28.6484 32.312 29.3609 31.5935 29.3609 30.7148V27.0276C29.3609 26.701 29.628 26.4338 29.9546 26.4338C30.2812 26.4338 30.5484 26.701 30.5484 27.0276V30.7148C30.5484 32.2526 29.3015 33.4995 27.7755 33.4995Z" fill="#101010"/>
<path d="M16.1084 17.7946H7.46336C7.26149 17.7946 7.07149 17.6937 6.96461 17.5215C6.85774 17.3493 6.83993 17.1356 6.92305 16.9515L8.64493 13.1931C9.16743 12.2074 10.1531 11.6196 11.2337 11.6196H15.4256C15.7521 11.6196 16.0193 11.8868 16.0193 12.2134C16.0193 12.5399 15.7521 12.8071 15.4256 12.8071H11.2337C10.5924 12.8071 10.0106 13.1574 9.70774 13.7215L8.38962 16.6071H16.1084C16.4349 16.6071 16.7021 16.8743 16.7021 17.2009C16.7021 17.5274 16.4409 17.7946 16.1084 17.7946Z" fill="#101010"/>
<path d="M6.35308 25.6264C5.0112 25.6264 3.9187 24.5339 3.9187 23.1861C3.9187 21.8383 5.0112 20.7517 6.35308 20.7517C7.69495 20.7517 8.79339 21.8442 8.79339 23.1861C8.79339 24.528 7.70089 25.6264 6.35308 25.6264ZM6.35308 21.9392C5.66433 21.9392 5.1062 22.4973 5.1062 23.1861C5.1062 23.8748 5.66433 24.4389 6.35308 24.4389C7.04183 24.4389 7.60589 23.8808 7.60589 23.1861C7.60589 22.5033 7.04776 21.9392 6.35308 21.9392Z" fill="#101010"/>
<path d="M25.0443 25.6264C23.6965 25.6264 22.604 24.5339 22.604 23.1861C22.604 22.6695 22.7762 22.1589 23.0849 21.7433C23.2809 21.482 23.6549 21.4286 23.9162 21.6245C24.1774 21.8205 24.2309 22.1945 24.0349 22.4558C23.8806 22.6695 23.7915 22.9248 23.7915 23.1861C23.7915 23.8748 24.3556 24.4389 25.0443 24.4389C25.7331 24.4389 26.2912 23.8748 26.2912 23.1861C26.2912 22.812 26.1249 22.4558 25.834 22.2242C25.5787 22.0164 25.5431 21.6423 25.7509 21.387C25.9587 21.1317 26.3328 21.0961 26.5881 21.3039C27.1581 21.767 27.4846 22.4558 27.4846 23.192C27.4787 24.5339 26.3862 25.6264 25.0443 25.6264Z" fill="#101010"/>
<path d="M19.2256 26.5882H12.16C10.9012 26.5882 9.87402 25.561 9.87402 24.3023C9.87402 23.0435 10.9012 22.0164 12.16 22.0164H19.2256C20.4843 22.0164 21.5115 23.0435 21.5115 24.3023C21.5115 25.561 20.4843 26.5882 19.2256 26.5882ZM12.16 23.2098C11.5543 23.2098 11.0615 23.7026 11.0615 24.3082C11.0615 24.9139 11.5543 25.4067 12.16 25.4067H19.2256C19.8312 25.4067 20.324 24.9139 20.324 24.3082C20.324 23.7026 19.8312 23.2098 19.2256 23.2098H12.16Z" fill="#101010"/>
<path d="M5.29029 17.3673H2.48186C1.25873 17.3673 0.26123 16.3698 0.26123 15.1467C0.26123 14.5529 0.492793 13.9948 0.908418 13.5792C1.32998 13.1576 1.88811 12.926 2.47592 12.926H3.35467C4.23342 12.926 5.02904 13.4426 5.39123 14.2501L6.13342 15.9363C6.25811 16.2213 6.14529 16.5479 5.87811 16.6963C5.88404 16.7201 5.88404 16.7498 5.88404 16.7735C5.88404 17.1001 5.62279 17.3673 5.29029 17.3673ZM2.48186 14.1135C2.20873 14.1135 1.94748 14.2204 1.75154 14.4163C1.55561 14.6123 1.44873 14.8676 1.44873 15.1467C1.44873 15.7167 1.91186 16.1798 2.48186 16.1798H4.94592L4.30467 14.731C4.13842 14.357 3.76436 14.1135 3.35467 14.1135H2.48186Z" fill="#101010"/>
<path d="M23.8331 22.6991C23.4056 22.6991 22.9781 22.6694 22.5506 22.6101C20.1459 22.2716 18.0143 21.0188 16.5478 19.0772C13.5256 15.0694 14.3272 9.35162 18.329 6.33537C22.3368 3.31319 28.0547 4.11475 31.0709 8.11662C34.0931 12.1244 33.2915 17.8422 29.2897 20.8585C27.6984 22.0697 25.7984 22.6991 23.8331 22.6991ZM23.8034 5.68819C22.1468 5.68819 20.4725 6.20475 19.0475 7.27944C15.5622 9.90975 14.8675 14.8794 17.4978 18.3588C18.7684 20.0451 20.6268 21.1376 22.7168 21.4285C24.8128 21.7194 26.8909 21.1791 28.5772 19.9085C32.0625 17.2782 32.7572 12.3085 30.1268 8.82912C28.5772 6.77475 26.2022 5.68819 23.8034 5.68819Z" fill="#101010"/>
<path d="M23.8272 20.2292C23.5184 20.2292 23.2038 20.2055 22.895 20.1639C21.1434 19.9205 19.5878 19.0061 18.525 17.593C16.3222 14.6717 16.91 10.5095 19.8253 8.31265C22.7406 6.10984 26.9028 6.69171 29.1056 9.61296C31.3084 12.5283 30.7206 16.6905 27.8053 18.8933C26.6416 19.7661 25.2581 20.2292 23.8272 20.2292ZM23.8094 8.16421C22.6694 8.16421 21.5175 8.52046 20.5438 9.25671C18.1509 11.0617 17.67 14.4817 19.475 16.8745C20.3478 18.0323 21.6244 18.7864 23.0613 18.9883C24.5041 19.1901 25.9291 18.8161 27.0928 17.9433C29.4856 16.1383 29.9666 12.7183 28.1616 10.3255C27.0869 8.91234 25.4541 8.16421 23.8094 8.16421Z" fill="#101010"/>
<path d="M34.5443 31.0769C34.0574 31.0769 33.5705 30.8572 33.2558 30.4356L30.1565 26.3328C29.6221 25.6203 29.7646 24.605 30.4712 24.0706L32.0505 22.8772C32.763 22.3428 33.7724 22.4853 34.3127 23.1919L37.4121 27.2947C37.9465 28.0072 37.804 29.0166 37.0974 29.5569L35.5121 30.7503C35.2212 30.97 34.8827 31.0769 34.5443 31.0769ZM33.0243 23.7381C32.9352 23.7381 32.8462 23.7678 32.769 23.8212L31.1837 25.0147C30.9937 25.1572 30.958 25.4244 31.1005 25.6144L34.194 29.7172C34.3365 29.9072 34.6037 29.9428 34.7937 29.8003L36.373 28.6069C36.563 28.4644 36.5987 28.1972 36.4562 28.0072L33.3627 23.9044C33.2915 23.8153 33.1965 23.7559 33.0837 23.7381C33.0659 23.7381 33.0421 23.7381 33.0243 23.7381Z" fill="#101010"/>
<path d="M30.8096 25.1573C30.6315 25.1573 30.4534 25.0741 30.3346 24.9198L27.6093 21.3098C27.4134 21.0485 27.4668 20.6745 27.7281 20.4785C27.9893 20.2826 28.3634 20.3301 28.5593 20.5973L31.2846 24.2073C31.4806 24.4685 31.4271 24.8426 31.1659 25.0385C31.059 25.1157 30.9343 25.1573 30.8096 25.1573Z" fill="#101010"/>
<path d="M32.4366 23.9283C32.2585 23.9283 32.0803 23.8451 31.9616 23.6908L29.2363 20.0808C29.0403 19.8195 29.0938 19.4455 29.355 19.2495C29.6163 19.0536 29.9903 19.1011 30.1863 19.3683L32.9116 22.9783C33.1075 23.2395 33.0541 23.6136 32.7928 23.8095C32.686 23.8926 32.5553 23.9283 32.4366 23.9283Z" fill="#101010"/>
</svg>
